<svg width="565" height="403" viewBox="0 0 565 403" fill="none" xmlns="http://www.w3.org/2000/svg">
<path d="M51.6211 4.2536H69.9588" stroke="white" stroke-width="7.4328" stroke-miterlimit="10" stroke-linecap="round"/>
<path d="M458.589 4H401.388C397.533 4 394.408 7.12464 394.408 10.9798V72.9081C394.408 76.7632 397.533 79.8879 401.388 79.8879H458.589C462.444 79.8879 465.569 76.7632 465.569 72.9081V10.9798C465.569 7.12464 462.444 4 458.589 4Z" fill="#1C85E8"/>
<path d="M403.076 61.0419H421.413" stroke="white" stroke-width="7.4328" stroke-miterlimit="10" stroke-linecap="round"/>
<path opacity="0.4" d="M403.076 69.6H440.971" stroke="white" stroke-width="7.4328" stroke-miterlimit="10" stroke-linecap="round"/>
<path d="M403.481 25.5151H412.965C413.662 25.5151 414.346 25.6974 414.95 26.0442C415.555 26.3909 416.058 26.8903 416.41 27.4918L425.59 43.1929C425.951 43.8095 426.471 44.3184 427.096 44.6663C427.721 45.0136 428.427 45.187 429.142 45.1673C429.857 45.1483 430.553 44.9373 431.159 44.5569C431.764 44.1765 432.256 43.6407 432.583 43.005L438.259 31.982C438.591 31.3362 439.093 30.7942 439.708 30.4127C440.326 30.0317 441.038 29.8258 441.762 29.818L458.42 29.6396" stroke="white" stroke-width="4" stroke-miterlimit="10" stroke-linecap="round"/>
<path opacity="0.4" d="M403.481 42.404H408.145C409.199 42.404 410.21 41.9877 410.957 41.2449L432.516 19.8342C433.264 19.0913 434.274 18.675 435.328 18.675H441.639C442.542 18.675 443.417 18.9802 444.124 19.5413C444.831 20.1018 445.325 20.8856 445.527 21.7637L448.843 36.0426C449.045 36.9206 449.539 37.7039 450.246 38.265C450.952 38.8261 451.828 39.1313 452.725 39.1313H458.42" stroke="white" stroke-width="4" stroke-miterlimit="10" stroke-linecap="round"/>
<path d="M540.11 381.821C540.11 381.821 538.017 402.911 501.677 402.911H459.068L515.591 358.966L540.11 381.821Z" fill="#5661AE"/>
<path d="M455.561 137.396L555.618 159.566C556.51 159.757 557.357 160.108 558.12 160.604C560.886 162.431 565.829 167.77 564.881 182.371C563.613 201.833 540.11 381.821 540.11 381.821L444.042 298.651L455.561 137.396Z" fill="#5661AE"/>
<path d="M444.868 136.824L545.654 159.156C545.654 159.156 554.278 162.297 554.188 181.8C554.098 201.303 529.416 381.249 529.416 381.249L433.347 298.078L444.868 136.824Z" fill="#1C85E8"/>
<path d="M446.506 147.105C446.506 147.105 448.279 172.795 449.059 176.866C450.428 183.997 481.758 169.016 479.458 162.666C478.268 159.372 472.843 127.981 472.843 127.981L446.506 147.105Z" fill="#BC775C"/>
<path d="M449.242 175.879L446.561 149.578H462.439L449.242 175.879Z" fill="#93523E" stroke="#93523E"/>
<path d="M486.331 122.474C487.543 109.54 472.871 112.329 470.363 112.912C467.854 113.496 463.927 94.3283 463.927 94.3283C463.927 94.3283 434.98 89.1737 428.778 94.3165C428.778 94.3165 424.888 118.475 424.261 133.946C423.633 149.418 427.973 156.347 433.645 156.877C441.372 158.261 450.512 156.702 456.352 153.259C466.755 147.126 471.199 136.034 471.199 136.034C471.384 135.948 471.485 135.904 471.485 135.904C471.485 135.904 485.192 134.69 486.331 122.474Z" fill="#BC775C"/>
<path d="M427.956 133.458C430.45 131.877 436.758 132.015 439.319 132.516C444.199 133.472 445.697 134.106 446.247 135.24C446.797 136.373 446.904 137.626 444.867 136.824C442.825 136.022 438.559 134.558 434.762 134.661C432.997 134.843 431.249 135.161 429.534 135.615C427.555 136.209 425.706 134.883 427.956 133.458Z" fill="#493212"/>
<path d="M426.19 117.671C426.19 117.671 427.836 103.197 428.044 99.19C428.346 93.4255 432.559 95.2805 435.576 99.3236C439.917 105.327 448.199 104.947 455.162 103.064C461.272 101.574 461.362 101.925 461.917 108.378C462.478 114.831 464.56 126.814 466.518 123.946C468.953 120.192 470.614 116.678 474.895 114.393C480.713 111.289 486.683 117.016 485.28 121.439C483.878 125.863 480.595 130.955 473.268 135.138L476.853 151.751C495.015 126.558 501.855 91.9594 477.223 83.9484C468.022 80.955 458.467 61.5581 440.658 65.9709C428.044 69.0972 428.044 79.2095 427.148 88.0027C410.199 88.7361 426.19 117.671 426.19 117.671Z" fill="#493212"/>
<path d="M447.97 122.436C448.318 120.602 447.622 118.932 446.421 118.704C445.22 118.476 443.964 119.779 443.621 121.613C443.273 123.447 443.964 125.117 445.164 125.345C446.365 125.572 447.622 124.27 447.97 122.436Z" fill="#080B09"/>
<path d="M431.435 119.197C431.783 117.364 431.09 115.693 429.888 115.466C428.687 115.239 427.431 116.541 427.085 118.374C426.737 120.209 427.43 121.879 428.632 122.107C429.833 122.334 431.089 121.032 431.435 119.197Z" fill="#080B09"/>
<path d="M434.818 123.946C434.818 123.946 436.969 127.818 434.022 127.961C431.204 128.001 429.609 129.7 432.518 132.015" stroke="#93523E" stroke-width="1.51544" stroke-linecap="round"/>
<path d="M433.099 135.245C434.849 135.321 438.349 135.474 440.68 135.615C440.821 135.622 440.955 135.667 441.067 135.745C441.185 135.824 441.275 135.933 441.337 136.06C441.393 136.187 441.415 136.329 441.399 136.468C441.387 136.607 441.331 136.739 441.247 136.85C439.225 139.206 434.531 143.492 432.404 136.223C432.352 136.112 432.33 135.99 432.341 135.868C432.351 135.746 432.394 135.63 432.464 135.53C432.535 135.43 432.632 135.351 432.743 135.301C432.854 135.251 432.977 135.231 433.099 135.245Z" fill="white"/>
<path d="M453.524 116.27L453.372 116.604C453.187 117.112 452.811 117.527 452.329 117.758C451.84 117.989 451.279 118.019 450.774 117.841L442.111 114.537C441.685 114.395 441.326 114.097 441.113 113.704C440.894 113.311 440.832 112.851 440.939 112.415C440.989 112.144 441.101 111.888 441.259 111.663C441.421 111.438 441.623 111.25 441.859 111.11C442.1 110.97 442.364 110.882 442.633 110.851C442.908 110.821 443.189 110.849 443.447 110.934L452.261 113.903C452.502 113.971 452.727 114.088 452.923 114.245C453.12 114.402 453.277 114.597 453.395 114.818C453.512 115.039 453.585 115.281 453.608 115.531C453.63 115.78 453.602 116.031 453.524 116.27Z" fill="#080B09"/>
<path d="M424.412 109.11L433.672 108.224C433.946 108.201 434.222 108.237 434.481 108.328C434.741 108.42 434.978 108.566 435.177 108.756C435.376 108.947 435.533 109.177 435.636 109.432C435.74 109.687 435.788 109.962 435.777 110.237C435.782 110.685 435.617 111.12 435.317 111.453C435.016 111.787 434.601 111.995 434.154 112.037L424.968 113.284C424.432 113.343 423.895 113.187 423.473 112.851C423.052 112.514 422.78 112.025 422.718 111.489L422.644 111.129C422.623 110.879 422.653 110.628 422.731 110.39C422.809 110.152 422.935 109.932 423.099 109.744C423.264 109.556 423.466 109.403 423.691 109.294C423.917 109.185 424.161 109.122 424.412 109.11Z" fill="#080B09"/>
<path d="M24.8887 381.821C24.8887 381.821 26.9809 402.911 63.3252 402.911H105.931L49.4094 358.966L24.8887 381.821Z" fill="#5661AE"/>
<path d="M109.441 137.396L9.38338 159.566C8.49295 159.757 7.64461 160.108 6.88098 160.604C4.11319 162.431 -0.830459 167.77 0.119444 182.371C1.38523 201.833 24.8899 381.821 24.8899 381.821L120.96 298.651L109.441 137.396Z" fill="#5661AE"/>
<path d="M120.137 136.824L19.3469 159.156C19.3469 159.156 10.7254 162.297 10.8151 181.8C10.9055 201.303 35.5856 381.249 35.5856 381.249L131.656 298.078L120.137 136.824Z" fill="#FEBB94"/>
<path d="M163.758 229.671L173.538 243.358C174.934 245.312 176.729 246.947 178.804 248.156C180.879 249.366 183.187 250.122 185.575 250.374L249.589 257.129L250.562 273.161L172.449 277.904C168.049 278.171 163.649 277.354 159.638 275.524C155.626 273.695 152.125 270.909 149.442 267.41L128.507 240.117L163.758 229.671Z" fill="#FFCCB3"/>
<path d="M169.874 238.231C169.874 238.231 149.75 243.545 143.866 260.142L133.839 245.321L167.712 235.205L169.874 238.231Z" fill="#FF967C"/>
<path d="M120.765 178.043C120.765 178.043 140.346 183.75 145.798 190.341C150.04 195.469 157.252 216.775 162.904 227.037C164.27 229.517 166.208 229.741 164.768 232.179C158.812 242.261 153.708 256.957 143.866 260.142C110.926 255.166 120.765 178.043 120.765 178.043Z" fill="#5661AE"/>
<path d="M141.927 207.239C141.927 207.239 154.995 230.939 156.979 243.676C156.979 243.676 152.326 255.484 149.042 257.886C143.917 261.634 141.104 259.528 141.104 259.528L141.927 207.239Z" fill="#465393"/>
<path d="M73.6238 130.17C91.6854 130.17 106.327 115.528 106.327 97.4669C106.327 79.4053 91.6854 64.7634 73.6238 64.7634C55.5622 64.7634 40.9209 79.4053 40.9209 97.4669C40.9209 115.528 55.5622 130.17 73.6238 130.17Z" fill="#080B09"/>
<path d="M101.332 80.0315C101.332 80.0315 59.1253 72.5793 54.1738 123.759C54.1738 123.759 58.4021 128.306 64.4881 128.803C64.4881 128.803 69.4306 79.1433 103.803 82.9805L101.332 80.0315Z" fill="#FEBB94"/>
<path d="M92.3859 81.9818C92.3859 81.9818 87.532 79.4626 91.1897 76.5579C93.4996 74.6317 95.3394 72.2034 96.5682 69.458C97.7251 70.0993 98.5948 71.1553 99.0027 72.4132C99.4106 73.6711 99.3259 75.0368 98.7654 76.2347C96.8908 80.8608 95.7182 81.1205 95.7182 81.1205L92.3859 81.9818Z" fill="#FEBB94"/>
<path d="M92.1387 79.1977C92.1387 79.1977 90.8022 84.5004 87.135 81.6081C84.7291 79.8026 81.9433 78.5699 78.9893 78.0043C79.3472 76.7312 80.1754 75.6422 81.3059 74.956C82.4365 74.2703 83.7853 74.0392 85.0798 74.309C90.0127 75.0704 90.5351 76.1527 90.5351 76.1527L92.1387 79.1977Z" fill="#FEBB94"/>
<path d="M101.495 154.95L106.662 174.175C106.662 174.175 146.107 218.929 113.368 235.205C107.614 238.065 80.112 216.08 74.9484 211.206C69.7843 206.332 71.9253 177.539 71.9253 177.539L83.7826 136.414L101.495 154.95Z" fill="#FFCCB3"/>
<path d="M89.8711 215.946C89.8711 215.946 109.141 228.058 128.506 216.819C128.506 216.819 125.522 233.505 113.783 238.876C102.044 244.246 89.8711 215.946 89.8711 215.946Z" fill="#1C85E8"/>
<path d="M102.512 158.347L92.1523 151.57L107.492 177.368L102.512 158.347Z" fill="#FF967C"/>
<path d="M128.736 107.643C128.736 107.643 134.216 136.476 124.423 153.285C118.036 164.246 109.262 164.555 92.1524 151.57C76.4642 139.663 73.2666 132.545 73.2666 132.545L77.1016 102.571C77.1016 102.571 122.456 81.6407 128.736 107.643Z" fill="#FFCCB3"/>
<path d="M106.661 174.175C106.661 174.175 126.057 178.965 129.185 181.17C132.312 183.375 136.326 202.676 141.958 211.613C147.589 220.551 155.282 234.673 145.399 251.005C135.517 267.337 136.408 282.966 136.408 282.966L143.887 323.964H60.5847C57.1027 324.282 55.2506 315.459 55.3544 311.964C55.6955 300.437 56.7879 297 56.0518 278.723C55.0548 253.953 45.8037 183.681 45.8037 183.681L73.2662 173.483C72.4218 212.144 94.8828 203.706 113.783 238.876C129.253 209.159 106.661 174.175 106.661 174.175Z" fill="#5661AE"/>
<path d="M63.8824 203.706C63.8824 203.706 67.9586 212.202 64.7397 220.881C61.1202 230.639 57.1371 254.416 74.7791 255.914C96.403 257.75 87.3253 261.671 77.5356 264.675C67.7454 267.679 71.8132 267.435 72.4383 277.728C72.8832 285.054 53.1888 299.928 55.0028 294.25C64.7358 263.788 31.6598 226.148 63.8824 203.706Z" fill="#465393"/>
<path d="M110.797 145.008L121.176 146.737C121.137 146.826 121.089 146.929 121.031 147.045C120.844 147.422 120.556 147.922 120.153 148.418C119.348 149.408 118.105 150.359 116.298 150.314C113.467 149.99 112.104 148.574 111.435 147.258C111.097 146.591 110.933 145.943 110.854 145.46C110.825 145.284 110.808 145.131 110.797 145.008Z" fill="#E56441" stroke="#E56441"/>
<path d="M126.625 132.185C127.788 132.129 128.662 130.693 128.578 128.98C128.494 127.267 127.484 125.924 126.321 125.981C125.158 126.038 124.284 127.473 124.368 129.186C124.452 130.9 125.463 132.243 126.625 132.185Z" fill="#080B09"/>
<path d="M109.462 133.272C110.625 133.215 111.499 131.78 111.415 130.067C111.331 128.353 110.32 127.01 109.158 127.068C107.995 127.124 107.121 128.56 107.205 130.273C107.288 131.986 108.299 133.329 109.462 133.272Z" fill="#080B09"/>
<path d="M130.277 121.718L121.547 122.289C121.398 122.286 121.254 122.23 121.144 122.129C121.033 122.029 120.963 121.892 120.945 121.744C120.964 121.477 121.037 121.216 121.159 120.977C121.282 120.739 121.451 120.528 121.657 120.357C121.864 120.186 122.103 120.058 122.36 119.982C122.617 119.906 122.887 119.882 123.153 119.913L130.371 120.708C130.944 120.68 130.993 121.682 130.277 121.718Z" fill="#080B09"/>
<path d="M100.66 122.62L112.298 122.768C112.269 122.415 112.167 122.071 111.997 121.759C111.829 121.448 111.596 121.175 111.315 120.959C111.034 120.743 110.71 120.588 110.366 120.504C110.021 120.421 109.663 120.41 109.314 120.473L100.482 121.911C100.196 121.925 100.231 122.641 100.66 122.62Z" fill="#080B09"/>
<path d="M119.299 128.566L123.032 136.834L120.43 139.213" stroke="#E56441" stroke-width="1.66686" stroke-linecap="round"/>
<path d="M118.024 112.118C111.928 112.16 109.072 110.746 102.677 113.755C100.659 114.704 98.7495 115.654 97.592 117.982C96.3521 122.662 97.1471 129.164 88.8976 128.983C88.8976 128.983 91.5661 120.101 85.8975 118.966C76.2717 117.039 77.8191 132.614 83.7828 136.414C87.8355 138.996 80.8731 157.622 75.6938 164.469C57.9783 123.069 64.1266 118.9 68.7325 108.093C76.559 89.7292 83.4164 84.1386 101.944 81.1015C101.944 81.1015 126.491 81.7641 132.999 103.361C138.562 121.823 130.212 128.901 130.212 128.901C130.212 128.901 130.472 115.163 129.113 113.755C127.325 111.903 125.875 112.063 118.024 112.118Z" fill="#080B09"/>
<path d="M415.881 335.584L346.416 347.924L360.089 402.912H404.585C404.585 402.912 425.735 357.448 415.881 335.584Z" fill="#FFCCB3"/>
<path d="M371.533 340.401C371.533 340.401 382.239 343.698 386.658 361.158C391.077 378.619 386.255 402.911 386.255 402.911H393.139C393.139 402.911 417.685 374.086 399.626 337.35L371.533 340.401Z" fill="#FF967C"/>
<path d="M516.746 318.256C516.746 318.256 522.099 358.229 514.109 377.283C507.309 393.487 496.806 402.674 484.052 402.912H386.255C386.255 402.912 386.1 350.675 344.852 341.75C344.852 341.75 480.607 303.94 516.746 318.256Z" fill="#1F2D49"/>
<path d="M518.625 330.379L429.89 333.3L430.833 327.102L448.126 325.103H518.502L518.625 330.379Z" fill="#0D1B33"/>
<path d="M449.76 173.802C448.997 177.038 448.8 165.59 447.257 166.067C440.193 168.256 420.093 174.529 415.818 176.317C410.61 178.496 410.263 187.21 409.915 193.383C409.672 197.708 416.109 258.42 416.43 299.551C416.498 308.338 407.605 318.623 406.553 323.507C406.261 324.823 406.105 326.165 406.086 327.512C406.081 328.451 406.448 329.354 407.108 330.023C407.768 330.691 408.666 331.071 409.606 331.078L515.568 332.068C515.568 332.068 520.265 332.751 519.131 327.39C518.009 321.526 517.397 315.577 517.291 309.607C516.236 266.887 516.034 195.342 515.574 191.955C514.878 186.871 520.337 182.494 514.424 179.935L481.606 166.823C481.606 166.823 475.592 171.212 474.722 171.656C458.237 180.086 449.76 173.802 449.76 173.802Z" fill="#FEBB94"/>
<path d="M456.589 178.162C456.589 178.162 452.841 191.924 454.575 205.217C456.303 218.51 449.474 236.698 448.06 251.293C446.647 265.888 453.57 285.009 452.487 297.261C451.41 309.512 455.338 332.097 455.338 332.097" stroke="#FF967C" stroke-width="3" stroke-miterlimit="10"/>
<path d="M159.571 325.395L229.036 337.736L215.363 392.723H170.867C170.867 392.723 149.716 347.26 159.571 325.395Z" fill="#FFCCB3"/>
<path d="M203.921 330.212C203.921 330.212 193.216 333.509 188.797 350.97C184.378 368.43 189.2 392.724 189.2 392.724H182.316C182.316 392.724 157.77 363.898 175.829 327.161L203.921 330.212Z" fill="#FF967C"/>
<path d="M56.6512 310.654C56.6512 310.654 44.3412 333.759 45.8056 364.228C47.1971 393.166 63.0284 402.911 88.0558 402.911L189.202 392.723C189.202 392.723 189.357 340.486 230.605 331.562C230.605 331.562 184.679 298.133 138.225 306.531C115.425 310.654 101.1 315.67 56.6512 310.654Z" fill="#1F2D49"/>
<path d="M54.9185 302.93C54.9185 302.93 120.427 309.774 144.571 291.733L143.492 306.795C143.492 306.795 102.667 329.476 55.8819 316.712C55.8819 316.712 48.8673 311.786 54.9185 302.93Z" fill="#1C85E8"/>
<path d="M254.833 279.806C254.833 279.806 274.293 275.731 282.352 277.598C290.565 279.295 307.85 283.619 304.754 296.292C302.613 305.34 293.167 301.756 293.167 301.756C293.167 301.756 295.625 305.369 291.97 307.017C289.742 307.943 275.364 300.058 275.364 300.058C265.768 303.144 253.247 296.628 253.247 296.628L254.833 279.806Z" fill="#FFCCB3"/>
<path d="M282.52 296.931L293.004 301.763" stroke="#FF967C" stroke-width="2.89316" stroke-linecap="round" stroke-linejoin="round"/>
<path d="M284.865 288.686C287.492 289.203 299.315 294.78 299.315 294.78" stroke="#FF967C" stroke-width="2.89316" stroke-linecap="round" stroke-linejoin="round"/>
<path d="M286.335 282.435C291.601 283.751 296.639 285.852 301.279 288.666" stroke="#FF967C" stroke-width="2.89316" stroke-linecap="round" stroke-linejoin="round"/>
<path d="M168.313 216.819H379.52L486.403 392.724H80.9873L168.313 216.819Z" fill="url(#paint0_linear_721:1674)"/>
<path d="M340.252 291.821L347.333 334.691L386.659 361.158L452.493 354.045L436.321 334.691L340.252 291.821Z" fill="#96BAFD"/>
<path d="M302.409 249.262L331.888 303.616L375.784 345.26L340.249 291.821L302.409 249.262Z" fill="white"/>
<path d="M302.41 249.262L331.888 303.616L329.045 305.802L300.008 250.73L302.41 249.262Z" fill="#5CA4E6"/>
<path d="M331.888 303.616L375.784 345.26V347.927L329.045 305.802L331.888 303.616Z" fill="#5CA4E6"/>
<path d="M375.786 347.927L436.32 336.862V334.691L375.786 345.26V347.927Z" fill="#5CA4E6"/>
<path d="M436.321 334.691L396.885 284.217L340.252 291.821L375.787 345.26L436.321 334.691Z" fill="#E7EFFF"/>
<path d="M75.436 207.353L66.2944 259.917C66.0638 261.231 65.3383 262.407 64.2678 263.203C63.1967 264 61.8619 264.355 60.5372 264.198C60.5372 264.198 34.7759 262.504 26.2004 261.79C24.1805 261.621 18.691 256.642 20.3691 248.441C21.9076 237.239 29.1135 211.081 33.67 196.556C35.792 189.329 58.4836 193.655 58.4836 193.655L75.436 207.353Z" fill="#5661AE"/>
<path d="M54.0514 225.342C65.9973 225.342 75.6809 215.659 75.6809 203.713C75.6809 191.768 65.9973 182.083 54.0514 182.083C42.1061 182.083 32.4219 191.768 32.4219 203.713C32.4219 215.659 42.1061 225.342 54.0514 225.342Z" fill="#5661AE"/>
<path d="M26.7891 264.71L27.1426 260.519L59.2137 264.172L58.7171 267.738L55.9886 290.227L24.8057 286.863L26.7891 264.71Z" fill="#FFCCB3"/>
<path d="M27.2985 260.483L59.2137 264.172L58.7171 267.738C51.4652 266.937 35.2063 265.572 26.7891 264.71L27.2985 260.483Z" fill="#FF967C"/>
<path d="M40.275 303.391C48.9464 303.391 55.9761 296.361 55.9761 287.69C55.9761 279.018 48.9464 271.988 40.275 271.988C31.603 271.988 24.5732 279.018 24.5732 287.69C24.5732 296.361 31.603 303.391 40.275 303.391Z" fill="#FFCCB3"/>
<path d="M48.0256 301.207L136.638 259.609C136.638 259.609 141.954 240.712 136.174 243.849C130.249 247.056 35.8457 272.575 35.8457 272.575L48.0256 301.207Z" fill="#FFCCB3"/>
<path d="M187.328 261.695L149.653 268.277C147.227 268.701 145.613 267.016 146.05 264.512L157.635 198.105C158.072 195.602 160.393 193.228 162.82 192.804L200.494 186.222C202.921 185.798 204.534 187.483 204.098 189.987L192.513 256.395C192.076 258.898 189.755 261.271 187.328 261.695Z" fill="#1C85E8"/>
<path d="M189.017 261.4L151.343 267.982C148.916 268.406 147.303 266.72 147.739 264.217L159.324 197.809C159.761 195.306 162.083 192.933 164.509 192.509L202.184 185.926C204.611 185.502 206.224 187.188 205.787 189.691L194.203 256.099C193.765 258.603 191.444 260.975 189.017 261.4Z" fill="#B2CDFF"/>
<path d="M130.828 245.698L135.202 259.958C135.202 259.958 153.323 255.612 157.2 253.709C164.759 249.822 172.888 244.58 173.84 242.587C176.757 237.547 177.1 231.31 176.766 226.953C176.724 226.306 176.523 225.679 176.181 225.128C175.839 224.576 175.367 224.118 174.806 223.792C174.245 223.466 173.612 223.283 172.964 223.259C172.316 223.235 171.672 223.371 171.088 223.655L155.226 231.572C155.226 231.572 153.161 228.082 155.238 225.309C156.577 223.479 154.512 219.99 153.594 218.921C153.232 218.427 151.301 218.412 150.863 218.912C150.125 219.855 151.14 223.131 149.582 225.21C146.929 228.539 149.284 229.985 142.454 235.66C137.051 240.111 130.771 245.562 130.828 245.698Z" fill="#FFCCB3"/>
<path d="M161.505 233.983C166.018 232.462 175.223 227.102 175.223 227.102" stroke="#FF967C" stroke-width="2.09903" stroke-linecap="round" stroke-linejoin="round"/>
<path d="M160.91 240.001C164.543 238.679 174.134 233.482 174.134 233.482" stroke="#FF967C" stroke-width="2.09903" stroke-linecap="round" stroke-linejoin="round"/>
<path d="M163.101 245.365C165.495 244.549 172.616 241.161 172.616 241.161" stroke="#FF967C" stroke-width="2.09903" stroke-linecap="round" stroke-linejoin="round"/>
<path d="M26.2541 258.808C25.4776 261.93 25.5516 265.203 26.4684 268.287C26.4684 268.287 41.8969 275.76 58.199 272.007C59.2976 271.067 60.1022 269.831 60.5163 268.446C60.9303 267.061 60.9371 265.586 60.5348 264.198L26.2541 258.808Z" fill="#5661AE"/>
<path d="M485.854 202.915C485.854 202.915 481.102 228.923 484.053 254.357C485.899 270.272 496.049 286.609 495.92 294.206C495.712 306.505 481.652 311.714 481.612 318.835C481.584 323.048 492.969 320.427 498.001 318.789C509.307 315.107 516.736 320.11 516.736 320.11L513.723 212.207L485.854 202.915Z" fill="#FF967C"/>
<path d="M516.062 196.591C505.631 183.536 500.952 189.788 497.288 190.107C497.288 190.107 484.877 192.419 485.854 202.915C486.886 214.02 505.143 288.028 505.143 288.028L543.47 285.147L541.653 274.942L537.91 253.923L533.921 231.449L533.567 228.774L529.084 199.208C529.084 199.208 521.465 203.563 516.062 196.591Z" fill="#FEBB94"/>
<path d="M518.638 219.126C528.827 212.87 532.019 199.538 525.763 189.348C519.507 179.158 506.176 175.969 495.987 182.225C485.792 188.48 482.605 201.813 488.861 212.002C495.117 222.192 508.449 225.381 518.638 219.126Z" fill="#FEBB94"/>
<path d="M426.904 291.1L402.739 292.898L397.027 306.37L398.979 323.001C398.979 323.001 403.137 321.307 403.568 315.424C403.998 309.541 423.235 313.714 428.264 307.253" fill="#BC775C"/>
<path d="M519.081 269.307L425.328 286.98C424.764 287.109 424.269 287.442 423.937 287.915C423.604 288.389 423.459 288.968 423.529 289.542L425.798 307.382C425.917 308.235 426.348 309.014 427.008 309.566C427.668 310.12 428.51 310.407 429.37 310.374L525.943 306.596L519.081 269.307Z" fill="#FEBB94"/>
<path d="M524.623 306.74C535.216 306.74 543.806 298.151 543.806 287.556C543.806 276.961 535.216 268.373 524.623 268.373C514.03 268.373 505.439 276.961 505.439 287.556C505.439 298.151 514.03 306.74 524.623 306.74Z" fill="#FEBB94"/>
<path d="M427.614 200.33C430.745 184.876 423.383 185.274 420.934 182.817C420.934 182.817 411.743 175.238 404.74 182.303C397.327 189.776 354.835 247.827 354.835 247.827L381.422 272.279L386.42 266.316L399.365 250.876L413.212 234.375L414.932 232.496L433.61 211.339C433.61 211.339 425.844 208.465 427.614 200.33Z" fill="#FEBB94"/>
<path d="M438.734 202.963C442.32 192.263 436.549 180.683 425.849 177.099C415.148 173.515 403.568 179.284 399.984 189.984C396.401 200.684 402.17 212.264 412.87 215.849C423.57 219.433 435.15 213.664 438.734 202.963Z" fill="#FEBB94"/>
<path d="M413.211 234.374C412.417 225.785 409.568 212.919 409.568 212.919C409.568 212.919 407.108 212.691 399.518 229.652C393.897 242.362 387.376 255.316 386.297 266.275L399.242 250.835L413.211 234.374Z" fill="#FF967C"/>
<path d="M361.293 172.579C359.909 159.511 363.465 158.877 363.514 151.792C363.538 144.868 373.994 132.049 369.007 132.309C364.021 132.567 360.519 137.333 360.519 137.333C359.78 131.121 361.029 120.785 354.673 116.885C348.316 112.985 346.82 114.873 341.644 116.423C327.827 120.667 335.54 138.951 335.681 144.745C335.806 148.392 342.22 162.033 342.511 164.549L344.553 174.25L361.293 172.579Z" fill="#BC775C"/>
<path d="M353.417 135.138L351.527 116.379L353.417 135.138Z" fill="#93523E"/>
<path d="M353.417 135.138L351.527 116.379" stroke="#93523E" stroke-width="1.51544" stroke-linecap="round"/>
<path d="M346.955 135.346L343.881 117.326L346.955 135.346Z" fill="#93523E"/>
<path d="M346.955 135.346L343.881 117.326" stroke="#93523E" stroke-width="1.51544" stroke-linecap="round"/>
<path d="M339.362 135.388L337.808 124.603L339.362 135.388Z" fill="#93523E"/>
<path d="M339.362 135.388L337.808 124.603" stroke="#93523E" stroke-width="1.51544" stroke-linecap="round"/>
<path d="M349.836 149.458C352.094 144.18 357.951 139.101 357.951 139.101L349.836 149.458Z" fill="#93523E"/>
<path d="M349.836 149.458C352.094 144.18 357.951 139.101 357.951 139.101" stroke="#93523E" stroke-width="1.51544" stroke-linecap="round"/>
<path d="M385.502 253.037L364.8 174.246C364.645 173.722 364.302 173.275 363.837 172.99C363.372 172.705 362.818 172.601 362.281 172.7L345.609 175.877C344.812 176.038 344.104 176.49 343.622 177.144C343.14 177.798 342.918 178.608 342.999 179.416L350.778 261.673L385.502 253.037Z" fill="#FEBB94"/>
<path d="M344.368 179.291C344.368 179.291 342.316 171.425 344.368 170.561C346.421 169.697 359.285 167.239 361.012 168.846C362.738 170.453 364.245 177.152 364.245 177.152L344.368 179.291Z" fill="#FEBB94"/>
<path d="M368.636 277.427C378.635 277.427 386.741 269.321 386.741 259.322C386.741 249.323 378.635 241.218 368.636 241.218C358.636 241.218 350.53 249.323 350.53 259.322C350.53 269.321 358.636 277.427 368.636 277.427Z" fill="#FEBB94"/>
<path d="M73.626 171.645C73.626 171.645 86.8214 197.202 100.297 201.405C100.297 201.405 107.87 197.383 106.663 174.175" stroke="white" stroke-miterlimit="10"/>
<path d="M99.8233 207.992C102.362 207.992 104.419 205.934 104.419 203.397C104.419 200.858 102.362 198.801 99.8233 198.801C97.285 198.801 95.2275 200.858 95.2275 203.397C95.2275 205.934 97.285 207.992 99.8233 207.992Z" fill="#5661AE"/>
<path d="M93.6377 199.301C94.5152 199.301 95.2261 198.59 95.2261 197.713C95.2261 196.836 94.5152 196.124 93.6377 196.124C92.7607 196.124 92.0498 196.836 92.0498 197.713C92.0498 198.59 92.7607 199.301 93.6377 199.301Z" fill="#5661AE"/>
<path d="M104.419 198.318C105.296 198.318 106.008 197.607 106.008 196.73C106.008 195.853 105.296 195.141 104.419 195.141C103.542 195.141 102.831 195.853 102.831 196.73C102.831 197.607 103.542 198.318 104.419 198.318Z" fill="#5661AE"/>
<path d="M232.047 277.109L180.255 277.401V327.161L257.34 322.669L232.047 277.109Z" fill="white"/>
<path d="M227.144 281.957L235.708 299.55" stroke="#1C85E8" stroke-width="3.81627" stroke-miterlimit="10" stroke-linecap="round"/>
<path opacity="0.4" d="M218.798 281.958L222.007 288.551" stroke="#1C85E8" stroke-width="3.81627" stroke-miterlimit="10" stroke-linecap="round"/>
<path opacity="0.4" d="M183.748 281.959L209.364 281.363L211.246 287.629L184.26 288.551L183.748 281.959Z" fill="#1C85E8"/>
<path opacity="0.4" d="M184.468 292.153L199.507 291.748L201.389 298.013L184.98 298.746L184.468 292.153Z" fill="#1C85E8"/>
<path opacity="0.4" d="M184.468 303.253L210.083 302.658L211.966 308.924L184.98 309.846L184.468 303.253Z" fill="#1C85E8"/>
<path opacity="0.4" d="M185.186 313.448L200.225 313.043L202.107 319.308L185.698 320.041L185.186 313.448Z" fill="#1C85E8"/>
<path d="M141.104 361.158L198.216 325.395L238.707 336.911L189.905 379.806L141.104 361.158Z" fill="#1C85E8"/>
<path d="M456.458 176.115C456.458 176.115 475.591 169.7 479.187 161.222C479.187 161.222 487.923 162.478 491.351 165.762C494.763 169.047 503.089 170.024 495.874 173.675C488.658 177.327 460.52 180.42 458.809 179.942C457.098 179.465 456.458 176.115 456.458 176.115Z" fill="white"/>
<path d="M448.53 164.44V168.731C448.53 168.731 450.242 174.895 456.459 176.115C456.459 176.115 457.429 179.517 454.007 179.921C450.59 180.325 440.647 175.299 439.185 174.807C437.715 174.322 437.069 172.294 439.918 170.671C439.918 170.671 440.939 165.109 448.53 164.44Z" fill="white"/>
<path d="M465.957 224.591C465.929 224.592 465.901 224.59 465.878 224.584C465.783 224.562 465.699 224.504 465.648 224.422C465.598 224.34 465.575 224.239 465.598 224.143C466.641 219.588 463.724 213.96 460.907 208.516C458.814 204.475 456.648 200.294 456.099 196.525C454.803 187.775 458.343 177.944 458.382 177.849C458.416 177.758 458.483 177.684 458.573 177.643C458.663 177.601 458.758 177.596 458.854 177.628C458.898 177.644 458.938 177.67 458.977 177.702C459.011 177.735 459.039 177.773 459.061 177.817C459.084 177.861 459.095 177.909 459.095 177.957C459.095 178.005 459.089 178.053 459.072 178.099C459.039 178.194 455.554 187.855 456.817 196.422C457.361 200.067 459.493 204.188 461.564 208.178C464.436 213.739 467.421 219.492 466.316 224.312C466.299 224.393 466.254 224.464 466.187 224.515C466.119 224.565 466.041 224.592 465.957 224.591Z" fill="white"/>
<path d="M452.374 220.418C452.289 220.42 452.211 220.392 452.144 220.342C452.082 220.291 452.037 220.219 452.02 220.139C449.72 210.492 452.183 193.954 452.991 189.112C453.664 185.452 453.9 181.726 453.698 178.01C453.687 177.914 453.72 177.818 453.782 177.744C453.844 177.67 453.928 177.623 454.029 177.613C454.124 177.604 454.22 177.632 454.293 177.692C454.371 177.753 454.416 177.841 454.427 177.937C454.64 181.716 454.399 185.506 453.715 189.229C452.907 194.042 450.46 210.455 452.733 219.97C452.744 220.024 452.75 220.081 452.733 220.135C452.721 220.19 452.699 220.241 452.665 220.285C452.632 220.327 452.587 220.361 452.536 220.383C452.48 220.406 452.43 220.418 452.374 220.418Z" fill="white"/>
<g opacity="0.6">
<path opacity="0.6" d="M465.571 227.227C466.85 227.227 467.888 226.192 467.888 224.914C467.888 223.637 466.85 222.602 465.571 222.602C464.286 222.602 463.248 223.637 463.248 224.914C463.248 226.192 464.286 227.227 465.571 227.227Z" fill="white"/>
</g>
<g opacity="0.6">
<path opacity="0.6" d="M452.79 222.37C454.075 222.37 455.113 221.335 455.113 220.058C455.113 218.781 454.075 217.746 452.79 217.746C451.511 217.746 450.473 218.781 450.473 220.058C450.473 221.335 451.511 222.37 452.79 222.37Z" fill="white"/>
</g>
<path d="M313.469 21.6964H316.835" stroke="#5CA4E6" stroke-miterlimit="10"/>
<path d="M375.091 4.08246H181.157C175.491 4.08246 170.896 8.67656 170.896 14.3429V139.319C170.896 144.986 175.491 149.58 181.157 149.58H375.091C380.757 149.58 385.351 144.986 385.351 139.319V14.3429C385.351 8.67656 380.757 4.08246 375.091 4.08246Z" fill="url(#paint1_linear_721:1674)"/>
<path d="M368.303 112.733H260.567C258.784 112.733 257.339 114.179 257.339 115.962V130.531C257.339 132.314 258.784 133.76 260.567 133.76H368.303C370.086 133.76 371.531 132.314 371.531 130.531V115.962C371.531 114.179 370.086 112.733 368.303 112.733Z" fill="white"/>
<path d="M334.937 121.804V120.967H336.834V128.262H335.905V121.804H334.937ZM338.391 122.803C338.438 122.184 338.677 121.7 339.108 121.35C339.538 121 340.096 120.825 340.782 120.825C341.24 120.825 341.634 120.909 341.963 121.078C342.3 121.239 342.552 121.461 342.72 121.744C342.895 122.026 342.982 122.346 342.982 122.702C342.982 123.119 342.861 123.479 342.619 123.782C342.384 124.084 342.074 124.28 341.691 124.367V124.418C342.128 124.525 342.475 124.737 342.73 125.053C342.986 125.369 343.114 125.783 343.114 126.295C343.114 126.678 343.026 127.024 342.851 127.334C342.676 127.637 342.414 127.876 342.064 128.05C341.714 128.225 341.293 128.313 340.803 128.313C340.089 128.313 339.504 128.128 339.047 127.758C338.59 127.381 338.334 126.849 338.28 126.163H339.168C339.215 126.567 339.38 126.897 339.662 127.152C339.945 127.408 340.322 127.536 340.792 127.536C341.263 127.536 341.62 127.414 341.862 127.173C342.111 126.923 342.236 126.604 342.236 126.214C342.236 125.709 342.067 125.346 341.731 125.124C341.395 124.902 340.887 124.791 340.207 124.791H339.975V124.024H340.217C340.836 124.017 341.304 123.917 341.62 123.721C341.936 123.519 342.094 123.21 342.094 122.793C342.094 122.437 341.976 122.15 341.741 121.936C341.512 121.72 341.183 121.612 340.752 121.612C340.335 121.612 339.999 121.72 339.743 121.936C339.487 122.15 339.336 122.44 339.289 122.803H338.391ZM344.243 127.526C345.096 126.839 345.766 126.278 346.251 125.841C346.735 125.396 347.142 124.936 347.472 124.458C347.808 123.973 347.976 123.499 347.976 123.035C347.976 122.598 347.868 122.255 347.653 122.006C347.445 121.75 347.105 121.622 346.634 121.622C346.177 121.622 345.82 121.767 345.564 122.056C345.315 122.339 345.181 122.719 345.16 123.197H344.273C344.299 122.443 344.528 121.861 344.958 121.451C345.389 121.041 345.944 120.835 346.624 120.835C347.317 120.835 347.865 121.027 348.268 121.41C348.679 121.794 348.884 122.322 348.884 122.995C348.884 123.553 348.716 124.098 348.379 124.629C348.05 125.154 347.673 125.618 347.249 126.022C346.826 126.419 346.284 126.883 345.624 127.414H349.096V128.181H344.243V127.526Z" fill="#1C85E8"/>
<path d="M242.244 19.4924H185.784C183.667 19.4924 181.951 21.2088 181.951 23.3263V129.926C181.951 132.043 183.667 133.76 185.784 133.76H242.244C244.361 133.76 246.077 132.043 246.077 129.926V23.3263C246.077 21.2088 244.361 19.4924 242.244 19.4924Z" fill="#1C85E8"/>
<path opacity="0.4" d="M214.014 95.3792C222.945 95.3792 230.185 88.1391 230.185 79.2084C230.185 70.2772 222.945 63.037 214.014 63.037C205.083 63.037 197.843 70.2772 197.843 79.2084C197.843 88.1391 205.083 95.3792 214.014 95.3792Z" fill="white"/>
<path d="M209.012 74.7563V85.0195C209.012 85.304 209.086 85.584 209.227 85.8314C209.367 86.0783 209.57 86.2847 209.815 86.4295C210.059 86.5748 210.338 86.6539 210.622 86.659C210.907 86.6635 211.188 86.5945 211.437 86.4581L220.82 81.3259C221.078 81.1851 221.293 80.977 221.443 80.7239C221.593 80.4709 221.672 80.1819 221.672 79.8879C221.672 79.5939 221.593 79.305 221.443 79.0519C221.293 78.7989 221.078 78.5907 220.82 78.4499L211.437 73.3177C211.188 73.1814 210.907 73.1124 210.622 73.1168C210.338 73.1219 210.059 73.201 209.815 73.3458C209.57 73.4911 209.367 73.6976 209.227 73.9444C209.086 74.1919 209.012 74.4713 209.012 74.7563Z" fill="white"/>
<path d="M260.236 33.217H300.57" stroke="white" stroke-width="16.3488" stroke-miterlimit="10" stroke-linecap="round"/>
<path opacity="0.4" d="M260.236 52.0405H343.589" stroke="white" stroke-width="16.3488" stroke-miterlimit="10" stroke-linecap="round"/>
<path d="M260.734 76.9899H301.068" stroke="white" stroke-width="16.3488" stroke-miterlimit="10" stroke-linecap="round"/>
<path opacity="0.4" d="M260.734 95.8129H344.087" stroke="white" stroke-width="16.3488" stroke-miterlimit="10" stroke-linecap="round"/>
<path d="M275.353 119.651C274.722 119.068 273.894 118.744 273.035 118.744C272.175 118.744 271.348 119.068 270.717 119.651L269.843 120.457L268.969 119.651C268.338 119.068 267.511 118.744 266.651 118.744C265.792 118.744 264.964 119.068 264.333 119.651C264 119.953 263.733 120.321 263.551 120.731C263.369 121.142 263.274 121.587 263.274 122.036C263.274 122.486 263.369 122.93 263.551 123.341C263.733 123.752 264 124.12 264.333 124.422L269.843 129.529L275.353 124.489C275.701 124.189 275.98 123.818 276.171 123.4C276.363 122.983 276.462 122.529 276.462 122.07C276.462 121.611 276.363 121.157 276.171 120.739C275.98 120.322 275.701 119.95 275.353 119.651Z" fill="#F4608A"/>
<path d="M281.506 122.803C281.553 122.184 281.792 121.7 282.223 121.35C282.653 121 283.212 120.825 283.898 120.825C284.355 120.825 284.749 120.909 285.078 121.078C285.415 121.239 285.667 121.461 285.835 121.744C286.01 122.026 286.098 122.346 286.098 122.702C286.098 123.119 285.977 123.479 285.734 123.782C285.499 124.084 285.19 124.28 284.806 124.367V124.418C285.243 124.525 285.59 124.737 285.845 125.053C286.101 125.369 286.229 125.783 286.229 126.295C286.229 126.678 286.141 127.024 285.967 127.334C285.792 127.637 285.529 127.876 285.179 128.05C284.829 128.225 284.409 128.313 283.918 128.313C283.205 128.313 282.62 128.128 282.162 127.758C281.705 127.381 281.449 126.849 281.396 126.163H282.283C282.33 126.567 282.495 126.897 282.778 127.152C283.06 127.408 283.437 127.536 283.908 127.536C284.379 127.536 284.736 127.414 284.977 127.173C285.227 126.923 285.351 126.604 285.351 126.214C285.351 125.709 285.183 125.346 284.846 125.124C284.51 124.902 284.002 124.791 283.323 124.791H283.091V124.024H283.333C283.952 124.017 284.419 123.917 284.736 123.721C285.051 123.519 285.21 123.21 285.21 122.793C285.21 122.437 285.092 122.15 284.856 121.936C284.628 121.72 284.298 121.612 283.868 121.612C283.451 121.612 283.114 121.72 282.858 121.936C282.603 122.15 282.451 122.44 282.404 122.803H281.506ZM288.568 126.991L287.438 129.705H286.823L287.56 126.991H288.568ZM294.121 121.764H290.579V124.064C290.734 123.849 290.962 123.674 291.265 123.54C291.568 123.398 291.894 123.328 292.244 123.328C292.802 123.328 293.257 123.445 293.606 123.681C293.956 123.91 294.205 124.209 294.353 124.579C294.508 124.942 294.585 125.329 294.585 125.74C294.585 126.224 294.494 126.658 294.313 127.041C294.131 127.425 293.852 127.727 293.475 127.949C293.105 128.171 292.645 128.282 292.092 128.282C291.386 128.282 290.814 128.101 290.377 127.738C289.94 127.374 289.674 126.89 289.58 126.284H290.478C290.566 126.668 290.75 126.967 291.033 127.183C291.316 127.398 291.672 127.505 292.103 127.505C292.634 127.505 293.034 127.347 293.304 127.031C293.573 126.708 293.707 126.284 293.707 125.76C293.707 125.235 293.573 124.831 293.304 124.549C293.034 124.259 292.638 124.115 292.113 124.115C291.756 124.115 291.443 124.202 291.175 124.377C290.912 124.546 290.72 124.777 290.599 125.074H289.731V120.956H294.121V121.764ZM295.695 127.526C296.549 126.839 297.218 126.278 297.703 125.841C298.187 125.396 298.594 124.936 298.924 124.458C299.26 123.973 299.428 123.499 299.428 123.035C299.428 122.598 299.32 122.255 299.105 122.006C298.897 121.75 298.557 121.622 298.086 121.622C297.629 121.622 297.272 121.767 297.016 122.056C296.767 122.339 296.633 122.719 296.612 123.197H295.725C295.752 122.443 295.98 121.861 296.411 121.451C296.841 121.041 297.396 120.835 298.076 120.835C298.769 120.835 299.317 121.027 299.721 121.41C300.131 121.794 300.336 122.322 300.336 122.995C300.336 123.553 300.168 124.098 299.831 124.629C299.502 125.154 299.125 125.618 298.701 126.022C298.278 126.419 297.736 126.883 297.077 127.414H300.548V128.181H295.695V127.526ZM306.1 121.683L303.295 128.262H302.366L305.212 121.774H301.317V120.987H306.1V121.683Z" fill="#1C85E8"/>
<path d="M330.819 123.257C330.819 120.162 327.151 117.653 322.627 117.653C318.103 117.653 314.436 120.162 314.436 123.257C314.436 126.353 318.103 128.862 322.627 128.862C322.951 128.862 323.268 128.845 323.582 128.819C323.63 128.814 323.678 128.822 323.723 128.839C323.768 128.856 323.809 128.883 323.842 128.919C324.423 129.527 325.699 130.469 328.116 130.619C328.177 130.623 328.237 130.61 328.291 130.582C328.345 130.554 328.389 130.512 328.42 130.459C328.451 130.407 328.468 130.348 328.467 130.287C328.466 130.227 328.448 130.167 328.416 130.116C327.994 129.485 327.665 128.797 327.437 128.074C327.419 128.001 327.426 127.925 327.456 127.858C327.487 127.79 327.541 127.735 327.607 127.702C329.558 126.678 330.819 125.07 330.819 123.257Z" fill="#1C85E8"/>
<path d="M153.282 4H82.1456C76.7222 4 72.3262 8.39604 72.3262 13.8194V111.925C72.3262 117.348 76.7222 121.744 82.1456 121.744H153.282C158.704 121.744 163.101 117.348 163.101 111.925V13.8194C163.101 8.39604 158.704 4 153.282 4Z" fill="#1C85E8"/>
<path d="M113.092 76.4883L109.366 85.2282H108.133L111.913 76.6089H106.738V75.5631H113.092V76.4883ZM116.214 80.1881C115.714 79.9917 115.329 79.7055 115.061 79.3302C114.793 78.9548 114.66 78.4992 114.66 77.9628C114.66 77.4803 114.78 77.0466 115.021 76.6628C115.263 76.2695 115.62 75.9609 116.094 75.7376C116.576 75.5053 117.157 75.3892 117.836 75.3892C118.515 75.3892 119.092 75.5053 119.566 75.7376C120.048 75.9609 120.41 76.2695 120.651 76.6628C120.902 77.0466 121.027 77.4803 121.027 77.9628C121.027 78.4813 120.888 78.9369 120.611 79.3302C120.334 79.7145 119.954 80.0007 119.472 80.1881C120.026 80.3581 120.464 80.6571 120.785 81.0863C121.116 81.506 121.281 82.0155 121.281 82.6142C121.281 83.1954 121.138 83.7049 120.852 84.1425C120.567 84.5717 120.16 84.9067 119.632 85.148C119.115 85.3803 118.515 85.4964 117.836 85.4964C117.157 85.4964 116.558 85.3803 116.04 85.148C115.531 84.9067 115.133 84.5717 114.847 84.1425C114.561 83.7049 114.418 83.1954 114.418 82.6142C114.418 82.0155 114.579 81.5015 114.901 81.0729C115.222 80.6436 115.66 80.3491 116.214 80.1881ZM119.847 78.1104C119.847 77.565 119.668 77.1453 119.311 76.8502C118.953 76.5551 118.462 76.4081 117.836 76.4081C117.22 76.4081 116.733 76.5551 116.375 76.8502C116.018 77.1453 115.839 77.5695 115.839 78.1238C115.839 78.6243 116.022 79.0261 116.389 79.3302C116.764 79.6337 117.247 79.7858 117.836 79.7858C118.435 79.7858 118.918 79.6337 119.284 79.3302C119.659 79.0171 119.847 78.6109 119.847 78.1104ZM117.836 80.7244C117.175 80.7244 116.635 80.8804 116.214 81.1935C115.794 81.497 115.584 81.9577 115.584 82.5743C115.584 83.146 115.785 83.6061 116.187 83.9551C116.599 84.3035 117.148 84.4775 117.836 84.4775C118.524 84.4775 119.07 84.3035 119.472 83.9551C119.874 83.6061 120.075 83.146 120.075 82.5743C120.075 81.9756 119.869 81.5195 119.458 81.207C119.047 80.8849 118.506 80.7244 117.836 80.7244ZM122.634 77.7216C122.634 77.1139 122.816 76.6314 123.183 76.274C123.549 75.9076 124.018 75.7241 124.591 75.7241C125.162 75.7241 125.631 75.9076 125.998 76.274C126.364 76.6314 126.548 77.1139 126.548 77.7216C126.548 78.3382 126.364 78.8297 125.998 79.1961C125.631 79.5535 125.162 79.7325 124.591 79.7325C124.018 79.7325 123.549 79.5535 123.183 79.1961C122.816 78.8297 122.634 78.3382 122.634 77.7216ZM130.462 75.8717L125.033 85.2282H123.826L129.255 75.8717H130.462ZM124.591 76.4748C124.287 76.4748 124.045 76.582 123.867 76.7963C123.697 77.0023 123.612 77.3103 123.612 77.7216C123.612 78.1328 123.697 78.4454 123.867 78.6597C124.045 78.8746 124.287 78.9817 124.591 78.9817C124.894 78.9817 125.135 78.8746 125.314 78.6597C125.493 78.4364 125.583 78.1239 125.583 77.7216C125.583 77.3103 125.493 77.0023 125.314 76.7963C125.135 76.582 124.894 76.4748 124.591 76.4748ZM127.767 83.3783C127.767 82.7617 127.951 82.2747 128.317 81.9173C128.684 81.5509 129.153 81.3674 129.724 81.3674C130.297 81.3674 130.761 81.5509 131.119 81.9173C131.485 82.2747 131.669 82.7617 131.669 83.3783C131.669 83.986 131.485 84.473 131.119 84.8394C130.761 85.2058 130.297 85.3892 129.724 85.3892C129.153 85.3892 128.684 85.2102 128.317 84.8528C127.951 84.4865 127.767 83.995 127.767 83.3783ZM129.711 82.1316C129.407 82.1316 129.166 82.2388 128.987 82.4537C128.809 82.659 128.719 82.9676 128.719 83.3783C128.719 83.7806 128.809 84.0887 128.987 84.3035C129.166 84.5089 129.407 84.6116 129.711 84.6116C130.015 84.6116 130.256 84.5089 130.435 84.3035C130.614 84.0887 130.703 83.7806 130.703 83.3783C130.703 82.9676 130.614 82.659 130.435 82.4537C130.256 82.2388 130.015 82.1316 129.711 82.1316Z" fill="white"/>
<path d="M117.714 105.892C132.951 105.892 145.302 93.54 145.302 78.3034C145.302 63.0663 132.951 50.7147 117.714 50.7147C102.477 50.7147 90.125 63.0663 90.125 78.3034C90.125 93.54 102.477 105.892 117.714 105.892Z" stroke="white" stroke-width="15" stroke-miterlimit="10" stroke-linecap="round"/>
<path d="M145.302 78.3028C145.293 85.6142 142.383 92.622 137.209 97.7884C132.037 102.955 125.025 105.857 117.714 105.857C110.403 105.857 103.391 102.955 98.218 97.7884C93.0454 92.622 90.1345 85.6142 90.125 78.3028" stroke="#96BAFD" stroke-width="15" stroke-linecap="round" stroke-linejoin="round"/>
<path d="M117.712 50.7147C121.335 50.7147 124.923 51.4279 128.27 52.8143C131.617 54.2013 134.659 56.2329 137.22 58.7948C139.782 61.3567 141.814 64.3983 143.201 67.7456C144.587 71.0925 145.301 74.68 145.301 78.3034" stroke="#FEBB94" stroke-width="15" stroke-linecap="round" stroke-linejoin="round"/>
<path d="M85.4678 22.2002H103.805" stroke="white" stroke-width="7.4328" stroke-miterlimit="10" stroke-linecap="round"/>
<path opacity="0.4" d="M85.4678 30.7578H123.363" stroke="white" stroke-width="7.4328" stroke-miterlimit="10" stroke-linecap="round"/>
<path d="M486.403 392.723H80.9873V402.911H486.403V392.723Z" fill="#1C85E8"/>
<path d="M84.1608 135.292C85.0904 135.292 85.844 134.538 85.844 133.609C85.844 132.679 85.0904 131.925 84.1608 131.925C83.2311 131.925 82.4775 132.679 82.4775 133.609C82.4775 134.538 83.2311 135.292 84.1608 135.292Z" fill="#5661AE"/>
<defs>
<linearGradient id="paint0_linear_721:1674" x1="234.811" y1="-2.45234" x2="276.585" y2="594.516" gradientUnits="userSpaceOnUse">
<stop stop-color="white"/>
<stop offset="1" stop-color="#94B9FF"/>
</linearGradient>
<linearGradient id="paint1_linear_721:1674" x1="253.297" y1="-42.2113" x2="286.538" y2="315.01" gradientUnits="userSpaceOnUse">
<stop stop-color="white"/>
<stop offset="1" stop-color="#94B9FF"/>
</linearGradient>
</defs>
</svg>
