<svg width="94" height="115" viewBox="0 0 94 115" fill="none" xmlns="http://www.w3.org/2000/svg">
<g opacity="0.3">
<mask id="mask0_706:1121" style="mask-type:alpha" maskUnits="userSpaceOnUse" x="-8" y="0" width="11" height="11">
<path d="M-2.49036 10.425C0.397198 10.425 2.73803 8.09121 2.73803 5.21245C2.73803 2.33368 0.397198 0 -2.49036 0C-5.37792 0 -7.71875 2.33368 -7.71875 5.21245C-7.71875 8.09121 -5.37792 10.425 -2.49036 10.425Z" fill="url(#paint0_linear_706:1121)"/>
</mask>
<g mask="url(#mask0_706:1121)">
<path d="M-2.49036 10.425C0.397198 10.425 2.73803 8.09121 2.73803 5.21245C2.73803 2.33368 0.397198 0 -2.49036 0C-5.37792 0 -7.71875 2.33368 -7.71875 5.21245C-7.71875 8.09121 -5.37792 10.425 -2.49036 10.425Z" fill="url(#paint1_linear_706:1121)"/>
</g>
<mask id="mask1_706:1121" style="mask-type:alpha" maskUnits="userSpaceOnUse" x="22" y="0" width="12" height="11">
<path d="M27.7909 10.425C30.6784 10.425 33.0193 8.09121 33.0193 5.21245C33.0193 2.33368 30.6784 0 27.7909 0C24.9033 0 22.5625 2.33368 22.5625 5.21245C22.5625 8.09121 24.9033 10.425 27.7909 10.425Z" fill="url(#paint2_linear_706:1121)"/>
</mask>
<g mask="url(#mask1_706:1121)">
<path d="M27.7909 10.425C30.6784 10.425 33.0193 8.09121 33.0193 5.21245C33.0193 2.33368 30.6784 0 27.7909 0C24.9033 0 22.5625 2.33368 22.5625 5.21245C22.5625 8.09121 24.9033 10.425 27.7909 10.425Z" fill="url(#paint3_linear_706:1121)"/>
</g>
<mask id="mask2_706:1121" style="mask-type:alpha" maskUnits="userSpaceOnUse" x="52" y="0" width="12" height="11">
<path d="M58.0712 10.425C60.9587 10.425 63.2996 8.09121 63.2996 5.21245C63.2996 2.33368 60.9587 0 58.0712 0C55.1836 0 52.8428 2.33368 52.8428 5.21245C52.8428 8.09121 55.1836 10.425 58.0712 10.425Z" fill="url(#paint4_linear_706:1121)"/>
</mask>
<g mask="url(#mask2_706:1121)">
<path d="M58.0712 10.425C60.9587 10.425 63.2996 8.09121 63.2996 5.21245C63.2996 2.33368 60.9587 0 58.0712 0C55.1836 0 52.8428 2.33368 52.8428 5.21245C52.8428 8.09121 55.1836 10.425 58.0712 10.425Z" fill="url(#paint5_linear_706:1121)"/>
</g>
<mask id="mask3_706:1121" style="mask-type:alpha" maskUnits="userSpaceOnUse" x="83" y="0" width="11" height="11">
<path d="M88.3524 10.425C91.24 10.425 93.5808 8.09121 93.5808 5.21245C93.5808 2.33368 91.24 0 88.3524 0C85.4648 0 83.124 2.33368 83.124 5.21245C83.124 8.09121 85.4648 10.425 88.3524 10.425Z" fill="url(#paint6_linear_706:1121)"/>
</mask>
<g mask="url(#mask3_706:1121)">
<path d="M88.3524 10.425C91.24 10.425 93.5808 8.09121 93.5808 5.21245C93.5808 2.33368 91.24 0 88.3524 0C85.4648 0 83.124 2.33368 83.124 5.21245C83.124 8.09121 85.4648 10.425 88.3524 10.425Z" fill="url(#paint7_linear_706:1121)"/>
</g>
<mask id="mask4_706:1121" style="mask-type:alpha" maskUnits="userSpaceOnUse" x="-8" y="26" width="11" height="11">
<path d="M-2.49036 36.5958C0.397198 36.5958 2.73803 34.2621 2.73803 31.3833C2.73803 28.5046 0.397198 26.1709 -2.49036 26.1709C-5.37792 26.1709 -7.71875 28.5046 -7.71875 31.3833C-7.71875 34.2621 -5.37792 36.5958 -2.49036 36.5958Z" fill="url(#paint8_linear_706:1121)"/>
</mask>
<g mask="url(#mask4_706:1121)">
<path d="M-2.49036 36.5958C0.397198 36.5958 2.73803 34.2621 2.73803 31.3833C2.73803 28.5046 0.397198 26.1709 -2.49036 26.1709C-5.37792 26.1709 -7.71875 28.5046 -7.71875 31.3833C-7.71875 34.2621 -5.37792 36.5958 -2.49036 36.5958Z" fill="url(#paint9_linear_706:1121)"/>
</g>
<mask id="mask5_706:1121" style="mask-type:alpha" maskUnits="userSpaceOnUse" x="22" y="26" width="12" height="11">
<path d="M27.7909 36.5958C30.6784 36.5958 33.0193 34.2621 33.0193 31.3833C33.0193 28.5046 30.6784 26.1709 27.7909 26.1709C24.9033 26.1709 22.5625 28.5046 22.5625 31.3833C22.5625 34.2621 24.9033 36.5958 27.7909 36.5958Z" fill="url(#paint10_linear_706:1121)"/>
</mask>
<g mask="url(#mask5_706:1121)">
<path d="M27.7909 36.5958C30.6784 36.5958 33.0193 34.2621 33.0193 31.3833C33.0193 28.5046 30.6784 26.1709 27.7909 26.1709C24.9033 26.1709 22.5625 28.5046 22.5625 31.3833C22.5625 34.2621 24.9033 36.5958 27.7909 36.5958Z" fill="url(#paint11_linear_706:1121)"/>
</g>
<mask id="mask6_706:1121" style="mask-type:alpha" maskUnits="userSpaceOnUse" x="52" y="26" width="12" height="11">
<path d="M58.0712 36.5958C60.9587 36.5958 63.2996 34.2621 63.2996 31.3833C63.2996 28.5046 60.9587 26.1709 58.0712 26.1709C55.1836 26.1709 52.8428 28.5046 52.8428 31.3833C52.8428 34.2621 55.1836 36.5958 58.0712 36.5958Z" fill="url(#paint12_linear_706:1121)"/>
</mask>
<g mask="url(#mask6_706:1121)">
<path d="M58.0712 36.5958C60.9587 36.5958 63.2996 34.2621 63.2996 31.3833C63.2996 28.5046 60.9587 26.1709 58.0712 26.1709C55.1836 26.1709 52.8428 28.5046 52.8428 31.3833C52.8428 34.2621 55.1836 36.5958 58.0712 36.5958Z" fill="url(#paint13_linear_706:1121)"/>
</g>
<mask id="mask7_706:1121" style="mask-type:alpha" maskUnits="userSpaceOnUse" x="83" y="26" width="11" height="11">
<path d="M88.3524 36.5958C91.24 36.5958 93.5808 34.2621 93.5808 31.3833C93.5808 28.5046 91.24 26.1709 88.3524 26.1709C85.4648 26.1709 83.124 28.5046 83.124 31.3833C83.124 34.2621 85.4648 36.5958 88.3524 36.5958Z" fill="url(#paint14_linear_706:1121)"/>
</mask>
<g mask="url(#mask7_706:1121)">
<path d="M88.3524 36.5958C91.24 36.5958 93.5808 34.2621 93.5808 31.3833C93.5808 28.5046 91.24 26.1709 88.3524 26.1709C85.4648 26.1709 83.124 28.5046 83.124 31.3833C83.124 34.2621 85.4648 36.5958 88.3524 36.5958Z" fill="url(#paint15_linear_706:1121)"/>
</g>
<mask id="mask8_706:1121" style="mask-type:alpha" maskUnits="userSpaceOnUse" x="-8" y="52" width="11" height="11">
<path d="M-2.49036 62.7124C0.397198 62.7124 2.73803 60.3787 2.73803 57.5C2.73803 54.6212 0.397198 52.2875 -2.49036 52.2875C-5.37792 52.2875 -7.71875 54.6212 -7.71875 57.5C-7.71875 60.3787 -5.37792 62.7124 -2.49036 62.7124Z" fill="url(#paint16_linear_706:1121)"/>
</mask>
<g mask="url(#mask8_706:1121)">
<path d="M-2.49036 62.7124C0.397198 62.7124 2.73803 60.3787 2.73803 57.5C2.73803 54.6212 0.397198 52.2875 -2.49036 52.2875C-5.37792 52.2875 -7.71875 54.6212 -7.71875 57.5C-7.71875 60.3787 -5.37792 62.7124 -2.49036 62.7124Z" fill="url(#paint17_linear_706:1121)"/>
</g>
<mask id="mask9_706:1121" style="mask-type:alpha" maskUnits="userSpaceOnUse" x="22" y="52" width="12" height="11">
<path d="M27.7909 62.7124C30.6784 62.7124 33.0193 60.3787 33.0193 57.5C33.0193 54.6212 30.6784 52.2875 27.7909 52.2875C24.9033 52.2875 22.5625 54.6212 22.5625 57.5C22.5625 60.3787 24.9033 62.7124 27.7909 62.7124Z" fill="url(#paint18_linear_706:1121)"/>
</mask>
<g mask="url(#mask9_706:1121)">
<path d="M27.7909 62.7124C30.6784 62.7124 33.0193 60.3787 33.0193 57.5C33.0193 54.6212 30.6784 52.2875 27.7909 52.2875C24.9033 52.2875 22.5625 54.6212 22.5625 57.5C22.5625 60.3787 24.9033 62.7124 27.7909 62.7124Z" fill="url(#paint19_linear_706:1121)"/>
</g>
<mask id="mask10_706:1121" style="mask-type:alpha" maskUnits="userSpaceOnUse" x="52" y="52" width="12" height="11">
<path d="M58.0712 62.7124C60.9587 62.7124 63.2996 60.3787 63.2996 57.5C63.2996 54.6212 60.9587 52.2875 58.0712 52.2875C55.1836 52.2875 52.8428 54.6212 52.8428 57.5C52.8428 60.3787 55.1836 62.7124 58.0712 62.7124Z" fill="url(#paint20_linear_706:1121)"/>
</mask>
<g mask="url(#mask10_706:1121)">
<path d="M58.0712 62.7124C60.9587 62.7124 63.2996 60.3787 63.2996 57.5C63.2996 54.6212 60.9587 52.2875 58.0712 52.2875C55.1836 52.2875 52.8428 54.6212 52.8428 57.5C52.8428 60.3787 55.1836 62.7124 58.0712 62.7124Z" fill="url(#paint21_linear_706:1121)"/>
</g>
<mask id="mask11_706:1121" style="mask-type:alpha" maskUnits="userSpaceOnUse" x="83" y="52" width="11" height="11">
<path d="M88.3524 62.7124C91.24 62.7124 93.5808 60.3787 93.5808 57.5C93.5808 54.6212 91.24 52.2875 88.3524 52.2875C85.4648 52.2875 83.124 54.6212 83.124 57.5C83.124 60.3787 85.4648 62.7124 88.3524 62.7124Z" fill="url(#paint22_linear_706:1121)"/>
</mask>
<g mask="url(#mask11_706:1121)">
<path d="M88.3524 62.7124C91.24 62.7124 93.5808 60.3787 93.5808 57.5C93.5808 54.6212 91.24 52.2875 88.3524 52.2875C85.4648 52.2875 83.124 54.6212 83.124 57.5C83.124 60.3787 85.4648 62.7124 88.3524 62.7124Z" fill="url(#paint23_linear_706:1121)"/>
</g>
<mask id="mask12_706:1121" style="mask-type:alpha" maskUnits="userSpaceOnUse" x="-8" y="78" width="11" height="11">
<path d="M-2.49036 88.8833C0.397198 88.8833 2.73803 86.5496 2.73803 83.6708C2.73803 80.7921 0.397198 78.4584 -2.49036 78.4584C-5.37792 78.4584 -7.71875 80.7921 -7.71875 83.6708C-7.71875 86.5496 -5.37792 88.8833 -2.49036 88.8833Z" fill="url(#paint24_linear_706:1121)"/>
</mask>
<g mask="url(#mask12_706:1121)">
<path d="M-2.49036 88.8833C0.397198 88.8833 2.73803 86.5496 2.73803 83.6708C2.73803 80.7921 0.397198 78.4584 -2.49036 78.4584C-5.37792 78.4584 -7.71875 80.7921 -7.71875 83.6708C-7.71875 86.5496 -5.37792 88.8833 -2.49036 88.8833Z" fill="url(#paint25_linear_706:1121)"/>
</g>
<mask id="mask13_706:1121" style="mask-type:alpha" maskUnits="userSpaceOnUse" x="22" y="78" width="12" height="11">
<path d="M27.7909 88.8833C30.6784 88.8833 33.0193 86.5496 33.0193 83.6708C33.0193 80.7921 30.6784 78.4584 27.7909 78.4584C24.9033 78.4584 22.5625 80.7921 22.5625 83.6708C22.5625 86.5496 24.9033 88.8833 27.7909 88.8833Z" fill="url(#paint26_linear_706:1121)"/>
</mask>
<g mask="url(#mask13_706:1121)">
<path d="M27.7909 88.8833C30.6784 88.8833 33.0193 86.5496 33.0193 83.6708C33.0193 80.7921 30.6784 78.4584 27.7909 78.4584C24.9033 78.4584 22.5625 80.7921 22.5625 83.6708C22.5625 86.5496 24.9033 88.8833 27.7909 88.8833Z" fill="url(#paint27_linear_706:1121)"/>
</g>
<mask id="mask14_706:1121" style="mask-type:alpha" maskUnits="userSpaceOnUse" x="52" y="78" width="12" height="11">
<path d="M58.0712 88.8833C60.9587 88.8833 63.2996 86.5496 63.2996 83.6708C63.2996 80.7921 60.9587 78.4584 58.0712 78.4584C55.1836 78.4584 52.8428 80.7921 52.8428 83.6708C52.8428 86.5496 55.1836 88.8833 58.0712 88.8833Z" fill="url(#paint28_linear_706:1121)"/>
</mask>
<g mask="url(#mask14_706:1121)">
<path d="M58.0712 88.8833C60.9587 88.8833 63.2996 86.5496 63.2996 83.6708C63.2996 80.7921 60.9587 78.4584 58.0712 78.4584C55.1836 78.4584 52.8428 80.7921 52.8428 83.6708C52.8428 86.5496 55.1836 88.8833 58.0712 88.8833Z" fill="url(#paint29_linear_706:1121)"/>
</g>
<mask id="mask15_706:1121" style="mask-type:alpha" maskUnits="userSpaceOnUse" x="83" y="78" width="11" height="11">
<path d="M88.3524 88.8833C91.24 88.8833 93.5808 86.5496 93.5808 83.6708C93.5808 80.7921 91.24 78.4584 88.3524 78.4584C85.4648 78.4584 83.124 80.7921 83.124 83.6708C83.124 86.5496 85.4648 88.8833 88.3524 88.8833Z" fill="url(#paint30_linear_706:1121)"/>
</mask>
<g mask="url(#mask15_706:1121)">
<path d="M88.3524 88.8833C91.24 88.8833 93.5808 86.5496 93.5808 83.6708C93.5808 80.7921 91.24 78.4584 88.3524 78.4584C85.4648 78.4584 83.124 80.7921 83.124 83.6708C83.124 86.5496 85.4648 88.8833 88.3524 88.8833Z" fill="url(#paint31_linear_706:1121)"/>
</g>
<mask id="mask16_706:1121" style="mask-type:alpha" maskUnits="userSpaceOnUse" x="-8" y="104" width="11" height="11">
<path d="M-2.49036 115C0.397198 115 2.73803 112.666 2.73803 109.788C2.73803 106.909 0.397198 104.575 -2.49036 104.575C-5.37792 104.575 -7.71875 106.909 -7.71875 109.788C-7.71875 112.666 -5.37792 115 -2.49036 115Z" fill="url(#paint32_linear_706:1121)"/>
</mask>
<g mask="url(#mask16_706:1121)">
<path d="M-2.49036 115C0.397198 115 2.73803 112.666 2.73803 109.788C2.73803 106.909 0.397198 104.575 -2.49036 104.575C-5.37792 104.575 -7.71875 106.909 -7.71875 109.788C-7.71875 112.666 -5.37792 115 -2.49036 115Z" fill="url(#paint33_linear_706:1121)"/>
</g>
<mask id="mask17_706:1121" style="mask-type:alpha" maskUnits="userSpaceOnUse" x="22" y="104" width="12" height="11">
<path d="M27.7909 115C30.6784 115 33.0193 112.666 33.0193 109.788C33.0193 106.909 30.6784 104.575 27.7909 104.575C24.9033 104.575 22.5625 106.909 22.5625 109.788C22.5625 112.666 24.9033 115 27.7909 115Z" fill="url(#paint34_linear_706:1121)"/>
</mask>
<g mask="url(#mask17_706:1121)">
<path d="M27.7909 115C30.6784 115 33.0193 112.666 33.0193 109.788C33.0193 106.909 30.6784 104.575 27.7909 104.575C24.9033 104.575 22.5625 106.909 22.5625 109.788C22.5625 112.666 24.9033 115 27.7909 115Z" fill="url(#paint35_linear_706:1121)"/>
</g>
<mask id="mask18_706:1121" style="mask-type:alpha" maskUnits="userSpaceOnUse" x="52" y="104" width="12" height="11">
<path d="M58.0712 115C60.9587 115 63.2996 112.666 63.2996 109.788C63.2996 106.909 60.9587 104.575 58.0712 104.575C55.1836 104.575 52.8428 106.909 52.8428 109.788C52.8428 112.666 55.1836 115 58.0712 115Z" fill="url(#paint36_linear_706:1121)"/>
</mask>
<g mask="url(#mask18_706:1121)">
<path d="M58.0712 115C60.9587 115 63.2996 112.666 63.2996 109.788C63.2996 106.909 60.9587 104.575 58.0712 104.575C55.1836 104.575 52.8428 106.909 52.8428 109.788C52.8428 112.666 55.1836 115 58.0712 115Z" fill="url(#paint37_linear_706:1121)"/>
</g>
<mask id="mask19_706:1121" style="mask-type:alpha" maskUnits="userSpaceOnUse" x="83" y="104" width="11" height="11">
<path d="M88.3524 115C91.24 115 93.5808 112.666 93.5808 109.788C93.5808 106.909 91.24 104.575 88.3524 104.575C85.4648 104.575 83.124 106.909 83.124 109.788C83.124 112.666 85.4648 115 88.3524 115Z" fill="url(#paint38_linear_706:1121)"/>
</mask>
<g mask="url(#mask19_706:1121)">
<path d="M88.3524 115C91.24 115 93.5808 112.666 93.5808 109.788C93.5808 106.909 91.24 104.575 88.3524 104.575C85.4648 104.575 83.124 106.909 83.124 109.788C83.124 112.666 85.4648 115 88.3524 115Z" fill="url(#paint39_linear_706:1121)"/>
</g>
</g>
<defs>
<linearGradient id="paint0_linear_706:1121" x1="43.2007" y1="120.843" x2="-28.2009" y2="-60.9613" gradientUnits="userSpaceOnUse">
<stop/>
<stop offset="1" stop-color="white"/>
</linearGradient>
<linearGradient id="paint1_linear_706:1121" x1="43.2007" y1="120.843" x2="-28.2009" y2="-60.9613" gradientUnits="userSpaceOnUse">
<stop stop-color="#97C3F9"/>
<stop offset="1" stop-color="#93C1F9"/>
</linearGradient>
<linearGradient id="paint2_linear_706:1121" x1="69.4053" y1="110.551" x2="-1.99629" y2="-71.2526" gradientUnits="userSpaceOnUse">
<stop/>
<stop offset="1" stop-color="white"/>
</linearGradient>
<linearGradient id="paint3_linear_706:1121" x1="69.4053" y1="110.551" x2="-1.99629" y2="-71.2526" gradientUnits="userSpaceOnUse">
<stop stop-color="#97C3F9"/>
<stop offset="1" stop-color="#93C1F9"/>
</linearGradient>
<linearGradient id="paint4_linear_706:1121" x1="95.6087" y1="100.259" x2="24.2071" y2="-81.5444" gradientUnits="userSpaceOnUse">
<stop/>
<stop offset="1" stop-color="white"/>
</linearGradient>
<linearGradient id="paint5_linear_706:1121" x1="95.6087" y1="100.259" x2="24.2071" y2="-81.5444" gradientUnits="userSpaceOnUse">
<stop stop-color="#97C3F9"/>
<stop offset="1" stop-color="#93C1F9"/>
</linearGradient>
<linearGradient id="paint6_linear_706:1121" x1="121.813" y1="89.9679" x2="50.4116" y2="-91.8359" gradientUnits="userSpaceOnUse">
<stop/>
<stop offset="1" stop-color="white"/>
</linearGradient>
<linearGradient id="paint7_linear_706:1121" x1="121.813" y1="89.9679" x2="50.4116" y2="-91.8359" gradientUnits="userSpaceOnUse">
<stop stop-color="#97C3F9"/>
<stop offset="1" stop-color="#93C1F9"/>
</linearGradient>
<linearGradient id="paint8_linear_706:1121" x1="34.2583" y1="124.354" x2="-37.1421" y2="-57.4491" gradientUnits="userSpaceOnUse">
<stop/>
<stop offset="1" stop-color="white"/>
</linearGradient>
<linearGradient id="paint9_linear_706:1121" x1="34.2583" y1="124.354" x2="-37.1421" y2="-57.4491" gradientUnits="userSpaceOnUse">
<stop stop-color="#97C3F9"/>
<stop offset="1" stop-color="#93C1F9"/>
</linearGradient>
<linearGradient id="paint10_linear_706:1121" x1="60.4628" y1="114.062" x2="-10.9376" y2="-67.7404" gradientUnits="userSpaceOnUse">
<stop/>
<stop offset="1" stop-color="white"/>
</linearGradient>
<linearGradient id="paint11_linear_706:1121" x1="60.4628" y1="114.062" x2="-10.9376" y2="-67.7404" gradientUnits="userSpaceOnUse">
<stop stop-color="#97C3F9"/>
<stop offset="1" stop-color="#93C1F9"/>
</linearGradient>
<linearGradient id="paint12_linear_706:1121" x1="86.6663" y1="103.771" x2="15.2659" y2="-78.0318" gradientUnits="userSpaceOnUse">
<stop/>
<stop offset="1" stop-color="white"/>
</linearGradient>
<linearGradient id="paint13_linear_706:1121" x1="86.6663" y1="103.771" x2="15.2659" y2="-78.0318" gradientUnits="userSpaceOnUse">
<stop stop-color="#97C3F9"/>
<stop offset="1" stop-color="#93C1F9"/>
</linearGradient>
<linearGradient id="paint14_linear_706:1121" x1="112.871" y1="93.4793" x2="41.4705" y2="-88.3232" gradientUnits="userSpaceOnUse">
<stop/>
<stop offset="1" stop-color="white"/>
</linearGradient>
<linearGradient id="paint15_linear_706:1121" x1="112.871" y1="93.4793" x2="41.4705" y2="-88.3232" gradientUnits="userSpaceOnUse">
<stop stop-color="#97C3F9"/>
<stop offset="1" stop-color="#93C1F9"/>
</linearGradient>
<linearGradient id="paint16_linear_706:1121" x1="25.3159" y1="127.866" x2="-46.0857" y2="-53.9374" gradientUnits="userSpaceOnUse">
<stop/>
<stop offset="1" stop-color="white"/>
</linearGradient>
<linearGradient id="paint17_linear_706:1121" x1="25.3159" y1="127.866" x2="-46.0857" y2="-53.9374" gradientUnits="userSpaceOnUse">
<stop stop-color="#97C3F9"/>
<stop offset="1" stop-color="#93C1F9"/>
</linearGradient>
<linearGradient id="paint18_linear_706:1121" x1="51.5204" y1="117.575" x2="-19.8811" y2="-64.2288" gradientUnits="userSpaceOnUse">
<stop/>
<stop offset="1" stop-color="white"/>
</linearGradient>
<linearGradient id="paint19_linear_706:1121" x1="51.5204" y1="117.575" x2="-19.8811" y2="-64.2288" gradientUnits="userSpaceOnUse">
<stop stop-color="#97C3F9"/>
<stop offset="1" stop-color="#93C1F9"/>
</linearGradient>
<linearGradient id="paint20_linear_706:1121" x1="77.7239" y1="107.283" x2="6.3223" y2="-74.5205" gradientUnits="userSpaceOnUse">
<stop/>
<stop offset="1" stop-color="white"/>
</linearGradient>
<linearGradient id="paint21_linear_706:1121" x1="77.7239" y1="107.283" x2="6.3223" y2="-74.5205" gradientUnits="userSpaceOnUse">
<stop stop-color="#97C3F9"/>
<stop offset="1" stop-color="#93C1F9"/>
</linearGradient>
<linearGradient id="paint22_linear_706:1121" x1="103.928" y1="96.9919" x2="32.5268" y2="-84.812" gradientUnits="userSpaceOnUse">
<stop/>
<stop offset="1" stop-color="white"/>
</linearGradient>
<linearGradient id="paint23_linear_706:1121" x1="103.928" y1="96.9919" x2="32.5268" y2="-84.812" gradientUnits="userSpaceOnUse">
<stop stop-color="#97C3F9"/>
<stop offset="1" stop-color="#93C1F9"/>
</linearGradient>
<linearGradient id="paint24_linear_706:1121" x1="16.3736" y1="131.378" x2="-55.0281" y2="-50.4254" gradientUnits="userSpaceOnUse">
<stop/>
<stop offset="1" stop-color="white"/>
</linearGradient>
<linearGradient id="paint25_linear_706:1121" x1="16.3736" y1="131.378" x2="-55.0281" y2="-50.4254" gradientUnits="userSpaceOnUse">
<stop stop-color="#97C3F9"/>
<stop offset="1" stop-color="#93C1F9"/>
</linearGradient>
<linearGradient id="paint26_linear_706:1121" x1="42.578" y1="121.087" x2="-28.8235" y2="-60.7168" gradientUnits="userSpaceOnUse">
<stop/>
<stop offset="1" stop-color="white"/>
</linearGradient>
<linearGradient id="paint27_linear_706:1121" x1="42.578" y1="121.087" x2="-28.8235" y2="-60.7168" gradientUnits="userSpaceOnUse">
<stop stop-color="#97C3F9"/>
<stop offset="1" stop-color="#93C1F9"/>
</linearGradient>
<linearGradient id="paint28_linear_706:1121" x1="68.7816" y1="110.795" x2="-2.62005" y2="-71.0085" gradientUnits="userSpaceOnUse">
<stop/>
<stop offset="1" stop-color="white"/>
</linearGradient>
<linearGradient id="paint29_linear_706:1121" x1="68.7816" y1="110.795" x2="-2.62005" y2="-71.0085" gradientUnits="userSpaceOnUse">
<stop stop-color="#97C3F9"/>
<stop offset="1" stop-color="#93C1F9"/>
</linearGradient>
<linearGradient id="paint30_linear_706:1121" x1="94.9861" y1="100.504" x2="23.5845" y2="-81.3" gradientUnits="userSpaceOnUse">
<stop/>
<stop offset="1" stop-color="white"/>
</linearGradient>
<linearGradient id="paint31_linear_706:1121" x1="94.9861" y1="100.504" x2="23.5845" y2="-81.3" gradientUnits="userSpaceOnUse">
<stop stop-color="#97C3F9"/>
<stop offset="1" stop-color="#93C1F9"/>
</linearGradient>
<linearGradient id="paint32_linear_706:1121" x1="7.43116" y1="134.89" x2="-63.9705" y2="-46.9133" gradientUnits="userSpaceOnUse">
<stop/>
<stop offset="1" stop-color="white"/>
</linearGradient>
<linearGradient id="paint33_linear_706:1121" x1="7.43116" y1="134.89" x2="-63.9705" y2="-46.9133" gradientUnits="userSpaceOnUse">
<stop stop-color="#97C3F9"/>
<stop offset="1" stop-color="#93C1F9"/>
</linearGradient>
<linearGradient id="paint34_linear_706:1121" x1="33.6357" y1="124.599" x2="-37.7659" y2="-57.2047" gradientUnits="userSpaceOnUse">
<stop/>
<stop offset="1" stop-color="white"/>
</linearGradient>
<linearGradient id="paint35_linear_706:1121" x1="33.6357" y1="124.599" x2="-37.7659" y2="-57.2047" gradientUnits="userSpaceOnUse">
<stop stop-color="#97C3F9"/>
<stop offset="1" stop-color="#93C1F9"/>
</linearGradient>
<linearGradient id="paint36_linear_706:1121" x1="59.8392" y1="114.307" x2="-11.5624" y2="-67.4963" gradientUnits="userSpaceOnUse">
<stop/>
<stop offset="1" stop-color="white"/>
</linearGradient>
<linearGradient id="paint37_linear_706:1121" x1="59.8392" y1="114.307" x2="-11.5624" y2="-67.4963" gradientUnits="userSpaceOnUse">
<stop stop-color="#97C3F9"/>
<stop offset="1" stop-color="#93C1F9"/>
</linearGradient>
<linearGradient id="paint38_linear_706:1121" x1="86.0438" y1="104.016" x2="14.6421" y2="-77.7878" gradientUnits="userSpaceOnUse">
<stop/>
<stop offset="1" stop-color="white"/>
</linearGradient>
<linearGradient id="paint39_linear_706:1121" x1="86.0438" y1="104.016" x2="14.6421" y2="-77.7878" gradientUnits="userSpaceOnUse">
<stop stop-color="#97C3F9"/>
<stop offset="1" stop-color="#93C1F9"/>
</linearGradient>
</defs>
</svg>
