<svg width="311" height="788" viewBox="0 0 311 788" fill="none" xmlns="http://www.w3.org/2000/svg">
<ellipse cx="-79.0918" cy="393.694" rx="349.908" ry="353.694" fill="white"/>
<path d="M-79.0918 767.388C125.405 767.388 290.816 599.876 290.816 393.694C290.816 187.512 125.405 20 -79.0918 20C-283.589 20 -449 187.512 -449 393.694C-449 599.876 -283.589 767.388 -79.0918 767.388Z" stroke="#0062FF" stroke-opacity="0.05" stroke-width="40"/>
<ellipse cx="-79.0919" cy="393.694" rx="249.316" ry="252.02" fill="white"/>
<path d="M-79.0919 660.714C67.0381 660.714 185.224 541.012 185.224 393.694C185.224 246.376 67.0381 126.673 -79.0919 126.673C-225.222 126.673 -343.408 246.376 -343.408 393.694C-343.408 541.012 -225.222 660.714 -79.0919 660.714Z" stroke="#0062FF" stroke-opacity="0.05" stroke-width="30"/>
<ellipse cx="-79.6328" cy="393.694" rx="159" ry="160.082" fill="white"/>
<path d="M-79.6328 563.776C13.7671 563.776 89.3672 487.563 89.3672 393.694C89.3672 299.824 13.7671 223.612 -79.6328 223.612C-173.033 223.612 -248.633 299.824 -248.633 393.694C-248.633 487.563 -173.033 563.776 -79.6328 563.776Z" stroke="#0062FF" stroke-opacity="0.05" stroke-width="20"/>
</svg>
