<svg width="599" height="566" viewBox="0 0 599 566" fill="none" xmlns="http://www.w3.org/2000/svg">
<path d="M304.614 489.278C429.885 489.278 531.439 486.29 531.439 482.605C531.439 478.919 429.885 475.932 304.614 475.932C179.342 475.932 77.79 478.919 77.79 482.605C77.79 486.29 179.342 489.278 304.614 489.278Z" fill="#F5F8FF"/>
<path d="M335.609 479.906H181.603C169.111 479.906 160.702 469.779 162.82 457.287L224.845 91.4884C226.963 78.9962 238.807 68.8694 251.299 68.8694H405.305C417.796 68.8694 426.206 78.9962 424.088 91.4884L362.062 457.287C359.944 469.779 348.1 479.906 335.609 479.906Z" fill="#5CA4E6"/>
<path d="M316.374 479.906H162.368C149.877 479.906 141.467 469.779 143.585 457.287L205.611 91.4884C207.729 78.9962 219.572 68.8694 232.065 68.8694H386.07C398.562 68.8694 406.972 78.9962 404.854 91.4884L342.828 457.287C340.71 469.779 328.866 479.906 316.374 479.906Z" fill="#D1E8F7"/>
<path d="M317.26 467.676H165.63C159.144 467.676 154.778 462.418 155.878 455.932L217.444 92.843C218.544 86.3566 224.693 81.0986 231.18 81.0986H382.809C389.295 81.0986 393.662 86.3566 392.562 92.843L330.996 455.932C329.896 462.418 323.746 467.676 317.26 467.676Z" fill="white"/>
<path d="M331.611 203.435H186.628L201.739 119.957C202.729 114.867 207.657 110.741 212.747 110.741H349.639C354.729 110.741 358.052 114.867 357.062 119.957L342.619 194.22C341.629 199.309 336.701 203.435 331.611 203.435Z" fill="url(#paint0_linear_721:2162)"/>
<path d="M319.926 192.694H102.877C97.7878 192.694 94.4638 188.568 95.4537 183.478L109.897 109.215C110.887 104.125 115.815 99.9988 120.905 99.9988H337.954C343.043 99.9988 346.367 104.125 345.377 109.215L330.934 183.478C329.944 188.568 325.015 192.694 319.926 192.694Z" fill="#FEBB94"/>
<path d="M306.077 458.21L171.458 458.849C166.368 458.849 163.045 454.723 164.035 449.633L178.478 375.371C179.468 370.281 184.396 366.154 189.486 366.154L324.105 365.515C329.195 365.515 332.518 369.642 331.528 374.731L317.085 448.994C316.095 454.084 311.167 458.21 306.077 458.21Z" fill="#FEBB94"/>
<path d="M186.264 435.721C190.094 405.762 218.56 381.474 249.845 381.474C281.13 381.474 303.386 405.762 299.555 435.721" stroke="#FF967C" stroke-width="16.5208" stroke-miterlimit="10" stroke-linecap="round"/>
<path d="M186.264 435.721C190.094 405.762 218.56 381.474 249.845 381.474C265.329 381.474 278.601 387.423 287.594 397.066" stroke="white" stroke-width="16.5208" stroke-miterlimit="10" stroke-linecap="round"/>
<path d="M289.979 355.016H193.588C188.443 355.016 184.966 350.845 185.822 345.7L206.179 223.25C207.034 218.106 211.898 213.935 217.043 213.935H313.433C318.578 213.935 322.055 218.106 321.2 223.25L300.842 345.7C299.987 350.845 295.124 355.016 289.979 355.016Z" fill="url(#paint1_linear_721:2162)"/>
<path d="M223.271 278.687H210.129C209.406 278.712 208.713 278.982 208.164 279.452C207.615 279.924 207.242 280.568 207.108 281.278L199.97 324.212C199.9 324.53 199.905 324.86 199.982 325.176C200.06 325.491 200.209 325.785 200.417 326.035C200.625 326.285 200.888 326.484 201.184 326.617C201.482 326.75 201.805 326.814 202.13 326.803H215.272C215.995 326.778 216.688 326.509 217.237 326.038C217.787 325.567 218.159 324.923 218.294 324.212L225.431 281.278C225.5 280.961 225.496 280.631 225.418 280.315C225.341 279.999 225.192 279.705 224.984 279.455C224.776 279.205 224.513 279.006 224.216 278.873C223.92 278.741 223.596 278.677 223.271 278.687Z" fill="white"/>
<path d="M247.249 293.378H234.107C233.383 293.402 232.691 293.672 232.142 294.143C231.592 294.614 231.22 295.257 231.085 295.968L226.389 324.212C226.32 324.53 226.325 324.86 226.402 325.176C226.48 325.491 226.629 325.785 226.837 326.035C227.045 326.285 227.307 326.485 227.604 326.617C227.901 326.75 228.224 326.814 228.55 326.803H241.692C242.415 326.779 243.108 326.509 243.657 326.038C244.206 325.567 244.579 324.923 244.713 324.212L249.409 295.968C249.478 295.65 249.474 295.321 249.396 295.005C249.318 294.689 249.17 294.395 248.962 294.145C248.753 293.895 248.491 293.696 248.194 293.563C247.897 293.43 247.574 293.367 247.249 293.378Z" fill="white"/>
<path d="M278.991 252.047H265.849C265.126 252.071 264.433 252.341 263.883 252.812C263.334 253.283 262.962 253.926 262.828 254.637L251.261 324.212C251.192 324.53 251.196 324.86 251.274 325.176C251.351 325.491 251.499 325.785 251.708 326.035C251.916 326.285 252.179 326.484 252.475 326.617C252.772 326.75 253.096 326.814 253.42 326.803H266.563C267.286 326.779 267.979 326.509 268.528 326.038C269.077 325.567 269.449 324.923 269.584 324.212L281.151 254.637C281.22 254.319 281.216 253.99 281.138 253.674C281.061 253.358 280.913 253.064 280.704 252.814C280.496 252.564 280.233 252.365 279.936 252.232C279.64 252.099 279.316 252.036 278.991 252.047Z" fill="white"/>
<path d="M301.607 270.082H288.465C287.742 270.106 287.049 270.376 286.5 270.847C285.951 271.318 285.578 271.961 285.444 272.672L276.875 324.212C276.806 324.53 276.81 324.86 276.888 325.176C276.965 325.491 277.113 325.785 277.322 326.035C277.53 326.285 277.793 326.484 278.089 326.617C278.387 326.75 278.71 326.814 279.035 326.803H292.177C292.9 326.778 293.593 326.509 294.143 326.038C294.692 325.567 295.064 324.923 295.199 324.212L303.767 272.672C303.836 272.354 303.832 272.025 303.754 271.709C303.677 271.393 303.528 271.099 303.32 270.849C303.111 270.599 302.849 270.4 302.552 270.267C302.256 270.134 301.932 270.071 301.607 270.082Z" fill="white"/>
<path d="M215.8 228.999H251.382" stroke="white" stroke-width="10" stroke-miterlimit="10" stroke-linecap="round"/>
<path d="M213.791 241.081H231.582" stroke="white" stroke-width="10" stroke-miterlimit="10" stroke-linecap="round"/>
<path opacity="0.6" d="M203.805 335.552H210.687" stroke="white" stroke-width="6" stroke-miterlimit="10" stroke-linecap="round"/>
<path opacity="0.6" d="M230.227 335.552H237.108" stroke="white" stroke-width="6" stroke-miterlimit="10" stroke-linecap="round"/>
<path opacity="0.6" d="M255.096 335.552H261.978" stroke="white" stroke-width="6" stroke-miterlimit="10" stroke-linecap="round"/>
<path opacity="0.6" d="M280.71 335.552H287.592" stroke="white" stroke-width="6" stroke-miterlimit="10" stroke-linecap="round"/>
<path d="M416.416 355.016H320.026C314.881 355.016 311.404 350.845 312.259 345.7L332.617 223.25C333.472 218.106 338.336 213.935 343.481 213.935H439.871C445.016 213.935 448.493 218.106 447.637 223.25L427.28 345.7C426.425 350.845 421.561 355.016 416.416 355.016Z" fill="url(#paint2_linear_721:2162)"/>
<path d="M347.211 297.147H334.068C333.346 297.171 332.652 297.441 332.103 297.912C331.554 298.383 331.182 299.027 331.047 299.737L326.406 324.212C326.337 324.53 326.342 324.86 326.419 325.175C326.496 325.491 326.645 325.785 326.853 326.035C327.062 326.285 327.324 326.484 327.621 326.617C327.918 326.75 328.241 326.813 328.566 326.803H341.708C342.431 326.778 343.125 326.509 343.674 326.038C344.223 325.567 344.595 324.923 344.73 324.212L349.371 299.737C349.44 299.42 349.435 299.09 349.358 298.774C349.281 298.458 349.132 298.164 348.923 297.915C348.715 297.665 348.453 297.465 348.156 297.332C347.859 297.199 347.536 297.136 347.211 297.147Z" fill="white"/>
<path d="M378.649 259.248H365.507C364.784 259.272 364.091 259.542 363.542 260.013C362.993 260.484 362.62 261.127 362.486 261.838L352.827 324.212C352.758 324.53 352.762 324.859 352.84 325.175C352.917 325.491 353.065 325.785 353.274 326.035C353.482 326.285 353.745 326.484 354.042 326.617C354.339 326.75 354.662 326.813 354.987 326.802H368.129C368.852 326.778 369.545 326.508 370.095 326.037C370.644 325.566 371.016 324.923 371.15 324.212L380.809 261.838C380.878 261.52 380.874 261.191 380.797 260.875C380.719 260.559 380.571 260.265 380.363 260.015C380.154 259.765 379.892 259.566 379.594 259.433C379.298 259.3 378.975 259.237 378.649 259.248Z" fill="white"/>
<path d="M401.079 277.057H387.937C387.214 277.081 386.521 277.351 385.972 277.822C385.423 278.293 385.05 278.937 384.916 279.647L377.697 324.212C377.628 324.53 377.633 324.86 377.71 325.175C377.787 325.491 377.936 325.785 378.145 326.035C378.353 326.285 378.616 326.484 378.912 326.617C379.209 326.75 379.532 326.813 379.857 326.803H392.999C393.722 326.778 394.416 326.509 394.965 326.037C395.514 325.566 395.886 324.923 396.021 324.212L403.239 279.647C403.308 279.33 403.304 279 403.227 278.684C403.149 278.368 403.001 278.074 402.793 277.824C402.584 277.575 402.322 277.375 402.024 277.242C401.728 277.109 401.405 277.046 401.079 277.057Z" fill="white"/>
<path d="M428.043 270.082H414.901C414.177 270.106 413.484 270.376 412.935 270.847C412.386 271.318 412.014 271.961 411.879 272.672L403.311 324.212C403.241 324.53 403.246 324.86 403.323 325.176C403.4 325.491 403.549 325.785 403.758 326.035C403.966 326.285 404.229 326.484 404.525 326.617C404.822 326.75 405.145 326.814 405.471 326.803H418.613C419.336 326.778 420.029 326.509 420.578 326.038C421.127 325.567 421.5 324.923 421.634 324.212L430.202 272.672C430.271 272.354 430.268 272.025 430.19 271.709C430.112 271.393 429.964 271.099 429.756 270.849C429.547 270.599 429.285 270.4 428.988 270.267C428.691 270.134 428.368 270.071 428.043 270.082Z" fill="white"/>
<path d="M342.237 228.999H377.819" stroke="white" stroke-width="10" stroke-miterlimit="10" stroke-linecap="round"/>
<path d="M340.227 241.081H358.018" stroke="white" stroke-width="10" stroke-miterlimit="10" stroke-linecap="round"/>
<path opacity="0.6" d="M330.242 335.552H337.124" stroke="white" stroke-width="6" stroke-miterlimit="10" stroke-linecap="round"/>
<path opacity="0.6" d="M356.662 335.552H363.543" stroke="white" stroke-width="6" stroke-miterlimit="10" stroke-linecap="round"/>
<path opacity="0.6" d="M381.533 335.552H388.415" stroke="white" stroke-width="6" stroke-miterlimit="10" stroke-linecap="round"/>
<path opacity="0.6" d="M407.147 335.552H414.029" stroke="white" stroke-width="6" stroke-miterlimit="10" stroke-linecap="round"/>
<path d="M7.27095 492.63L34.6418 549.889L31.2474 551.512C30.1015 552.06 28.7855 552.13 27.5885 551.707C26.3914 551.285 25.411 550.403 24.8639 549.258L1.62116 500.637C1.07407 499.491 1.00378 498.175 1.42623 496.978C1.84933 495.781 2.73003 494.801 3.87597 494.253L7.27095 492.63Z" fill="#71C8EA"/>
<path d="M37.0694 479.701L18.1797 487.51L28.7769 502.496L45.523 497.386L37.0694 479.701Z" fill="#FFCCB3"/>
<path d="M25.004 488.108C25.004 488.108 32.3788 499.498 33.4915 505.863C34.6042 512.228 38.414 544.423 37.3888 547.325C36.6519 549.411 33.9753 550.306 32.2772 550.495C31.9046 550.535 31.5288 550.458 31.2022 550.274C30.8756 550.091 30.6135 549.81 30.4538 549.472L5.60811 497.495C5.19268 496.628 5.13452 495.633 5.44513 494.724C5.75638 493.813 6.41147 493.063 7.27108 492.631C10.7083 490.904 15.9663 488.316 18.1802 487.51C21.602 486.264 23.8606 486.272 25.004 488.108Z" fill="#5661AE"/>
<path d="M158.724 515.357L133.055 562.741C132.45 563.858 131.427 564.688 130.21 565.05C128.993 565.412 127.682 565.276 126.566 564.67L123.257 562.878L153.487 507.076L156.795 508.868C157.912 509.472 158.742 510.496 159.104 511.713C159.465 512.93 159.329 514.241 158.724 515.357Z" fill="#71C8EA"/>
<path d="M124.38 492.657L142.851 501.41L131.51 515.841L115.043 509.892L124.38 492.657Z" fill="#FFCCB3"/>
<path d="M136.006 501.662C136.006 501.662 128.065 512.665 126.632 518.966C125.2 525.266 119.768 557.227 120.645 560.178C121.275 562.299 123.903 563.328 125.59 563.602C125.96 563.661 126.339 563.603 126.674 563.436C127.01 563.269 127.285 563.002 127.462 562.672L154.904 512.018C155.362 511.173 155.47 510.182 155.206 509.258C154.941 508.333 154.325 507.55 153.489 507.076C150.143 505.177 145.022 502.326 142.852 501.41C139.497 499.993 137.241 499.887 136.006 501.662Z" fill="#5661AE"/>
<path d="M180.027 425.158C180.027 425.158 187.098 460.273 181.611 467.153L41.7814 502.958L29.8574 480.623L111.512 443.57L127.865 421.156L180.027 425.158Z" fill="#D1E8F7"/>
<path d="M144.643 450.214L113.792 460.533L99.3955 466.569L118.116 483.412L101.379 487.193L55.7266 450.214H144.643Z" fill="#5CA4E6"/>
<path d="M38.6191 477.694L39.5682 480.991L61.2471 497.913L81.6112 492.944C81.6112 492.944 42.3267 474.248 38.6191 477.694Z" fill="#5CA4E6"/>
<path d="M77.865 423.109C77.865 423.109 38.326 420.964 18.7282 422.687C6.10881 423.796 1.55958 456.089 11.6301 461.964L119.709 517.302L132.445 494.288L62.7243 447.095L112.604 440.078L77.865 423.109Z" fill="#D1E8F7"/>
<path d="M22.0515 464.713C33.7281 464.713 43.1941 455.247 43.1941 443.57C43.1941 431.893 33.7281 422.427 22.0515 422.427C10.3742 422.427 0.908203 431.893 0.908203 443.57C0.908203 455.247 10.3742 464.713 22.0515 464.713Z" fill="#D1E8F7"/>
<path d="M178.098 467.444C189.775 467.444 199.241 457.978 199.241 446.301C199.241 434.624 189.775 425.158 178.098 425.158C166.421 425.158 156.955 434.624 156.955 446.301C156.955 457.978 166.421 467.444 178.098 467.444Z" fill="#D1E8F7"/>
<path d="M120.18 346.53C117.953 335.534 123.191 335.817 124.935 334.069C124.935 334.069 131.474 328.677 136.457 333.703C141.732 339.021 171.968 380.327 171.968 380.327L153.049 397.727L149.493 393.484L140.282 382.497L130.429 370.755L129.205 369.419L115.914 354.365C115.914 354.365 121.44 352.319 120.18 346.53Z" fill="#5661AE"/>
<path d="M130.672 357.573C138.286 355.023 142.391 346.783 139.841 339.169C137.291 331.555 129.051 327.45 121.437 330C113.823 332.551 109.718 340.79 112.269 348.404C114.819 356.018 123.058 360.123 130.672 357.573Z" fill="#5661AE"/>
<path d="M129.38 369.36C128.999 367.062 128.236 362.465 127.414 358.276L123.05 338C123.05 338 134.772 355.326 140.174 367.395C144.173 376.439 148.813 385.657 149.581 393.454L140.37 382.468L130.517 370.727L129.38 369.36Z" fill="#465393"/>
<path d="M190.864 333.823C195.36 325.624 193.2 324.232 195.112 319.567C196.996 315.014 193.651 303.729 196.853 305.268C200.055 306.807 201.047 310.896 201.047 310.896C203.237 307.021 205.254 299.893 210.497 299.077C215.741 298.261 216.205 299.911 219.176 302.35C227.083 308.929 217.001 318.815 215.318 322.579C214.235 324.94 206.28 332.134 205.399 333.706L201.395 339.515L190.864 333.823Z" fill="#FFCCB3"/>
<path d="M206.312 311.405L212.701 299.608L206.312 311.405Z" fill="#E56441"/>
<path d="M206.312 311.405L212.701 299.608" stroke="#E56441" stroke-width="0.94666" stroke-linecap="round"/>
<path d="M210.497 313.315L217.461 302.328L210.497 313.315Z" fill="#E56441"/>
<path d="M210.497 313.315L217.461 302.328" stroke="#E56441" stroke-width="0.94666" stroke-linecap="round"/>
<path d="M215.471 315.427L219.45 308.773L215.471 315.427Z" fill="#E56441"/>
<path d="M215.471 315.427L219.45 308.773" stroke="#E56441" stroke-width="0.94666" stroke-linecap="round"/>
<path d="M204.733 321.789C204.699 317.704 202.248 312.762 202.248 312.762L204.733 321.789Z" fill="#E56441"/>
<path d="M204.733 321.789C204.699 317.704 202.248 312.762 202.248 312.762" stroke="#E56441" stroke-width="0.94666" stroke-linecap="round"/>
<path d="M152.889 379.998L191.359 328.767C191.604 328.466 191.952 328.267 192.336 328.207C192.719 328.147 193.111 328.232 193.436 328.444L203.51 335.106C203.989 335.43 204.329 335.921 204.467 336.483C204.604 337.045 204.527 337.637 204.252 338.146L173.315 395.199L152.889 379.998Z" fill="#5661AE"/>
<path d="M162.235 401.637C169.351 401.637 175.119 395.869 175.119 388.754C175.119 381.639 169.351 375.871 162.235 375.871C155.121 375.871 149.353 381.639 149.353 388.754C149.353 395.869 155.121 401.637 162.235 401.637Z" fill="#5661AE"/>
<path d="M105.108 322.745C105.108 322.745 126.697 328.458 130.403 329.94C134.109 331.423 134.356 337.352 134.603 341.552C134.85 345.752 134.02 440.078 134.02 440.078L86.2422 438.241L50.5117 417.326C50.5117 417.326 52.0654 342.481 52.5595 339.023C53.0535 335.564 49.1709 332.585 53.3794 330.844L80.4332 323.697L105.108 322.745Z" fill="#5661AE"/>
<path d="M69.1552 356.347L69.5399 426.039L49 403.146L58.9376 354.178L69.1552 356.347Z" fill="#465393"/>
<path d="M76.9091 324.763C76.9091 324.763 73.8529 330.909 76.9091 335.149C79.9654 339.389 92.2006 343.508 100.56 343.387C108.918 343.266 113.347 335.296 109.558 324.138L95.7139 320.249L80.4326 323.697L76.9091 324.763Z" fill="#465393"/>
<path d="M111.512 271.79C111.512 271.79 117.531 284.779 111.112 287.462C104.692 290.145 105.439 272.42 111.512 271.79Z" fill="#93523E"/>
<path d="M104.723 313.353L106.465 332.99C106.465 332.99 108.134 335.622 101.632 337.005C97.45 337.894 86.1875 333.456 84.0023 332.125C83.0731 331.631 82.3451 330.83 81.9437 329.858C81.5424 328.885 81.4925 327.804 81.8025 326.798C82.4665 324.395 85.2186 304.377 85.2186 304.377L104.723 313.353Z" fill="#FFCCB3"/>
<path d="M105.058 317.139L94.6836 312.014L106.249 330.568L105.058 317.139Z" fill="#FF967C"/>
<path d="M108.055 275.549C108.055 275.549 114.143 290.818 116.352 301.529C118.58 312.336 115.025 315.035 110.334 316.624C106.634 317.878 100.726 318.877 96.7077 317.619C89.379 315.324 82.2094 308.703 80.4946 307.342C77.8397 305.237 75.2187 295.684 79.1096 290.281C83.0012 284.876 98.333 267.894 108.055 275.549Z" fill="#FFCCB3"/>
<path d="M100.218 296.624C101.028 296.305 101.29 295.045 100.803 293.809C100.317 292.573 99.2668 291.83 98.457 292.148C97.6472 292.467 97.3852 293.727 97.8709 294.963C98.3573 296.199 99.408 296.942 100.218 296.624Z" fill="#080B09"/>
<path d="M111.345 292.164C112.154 291.846 112.416 290.586 111.93 289.35C111.444 288.114 110.394 287.371 109.584 287.689C108.774 288.008 108.512 289.268 108.998 290.504C109.484 291.739 110.535 292.483 111.345 292.164Z" fill="#080B09"/>
<path d="M107.264 294.273C107.264 294.273 106.276 297.265 108.354 296.974C110.33 296.627 111.67 297.603 109.944 299.608" fill="#E56441"/>
<path d="M107.264 294.273C107.264 294.273 106.276 297.265 108.354 296.974C110.33 296.627 111.67 297.603 109.944 299.608" stroke="#E56441" stroke-width="0.94666" stroke-linecap="round"/>
<path d="M110.041 302.253L110.051 302.252L110.061 302.248C110.09 302.239 110.12 302.239 110.149 302.246C110.179 302.252 110.205 302.267 110.227 302.288C110.249 302.309 110.265 302.335 110.273 302.364C110.281 302.393 110.282 302.424 110.274 302.453L110.267 302.478L110.265 302.503C110.138 303.813 109.812 304.591 109.416 305.028C109.034 305.452 108.555 305.592 108.011 305.551C107.453 305.508 106.84 305.273 106.246 304.95C105.659 304.631 105.114 304.239 104.693 303.903C104.664 303.876 104.643 303.843 104.632 303.805C104.619 303.766 104.618 303.724 104.628 303.684C104.638 303.644 104.659 303.607 104.687 303.578C104.717 303.549 104.753 303.528 104.793 303.519L104.797 303.518C106.403 303.111 108.827 302.54 110.041 302.253Z" fill="#E56441" stroke="#E56441"/>
<path d="M93.1671 291.393L93.3192 291.606C93.5142 291.936 93.8318 292.177 94.2031 292.274C94.5738 292.371 94.9688 292.317 95.3005 292.125L100.916 288.665C101.195 288.509 101.405 288.253 101.504 287.95C101.603 287.646 101.586 287.316 101.453 287.025C101.38 286.843 101.27 286.679 101.129 286.543C100.989 286.407 100.821 286.302 100.636 286.236C100.452 286.169 100.256 286.143 100.06 286.158C99.8644 286.173 99.6746 286.229 99.5027 286.323L93.7346 289.57C93.5755 289.65 93.4343 289.762 93.3186 289.897C93.2035 290.033 93.1166 290.19 93.0642 290.361C93.0112 290.531 92.9926 290.71 93.0105 290.887C93.0284 291.064 93.0815 291.236 93.1671 291.393Z" fill="#080B09"/>
<path d="M112.567 282.52L105.976 283.13C105.781 283.15 105.593 283.212 105.424 283.311C105.254 283.409 105.108 283.543 104.994 283.703C104.88 283.862 104.802 284.043 104.763 284.236C104.725 284.428 104.727 284.626 104.771 284.817C104.828 285.131 105 285.413 105.255 285.606C105.51 285.8 105.827 285.89 106.146 285.86L112.732 285.511C113.115 285.481 113.47 285.3 113.72 285.01C113.97 284.718 114.094 284.34 114.066 283.958L114.071 283.696C114.052 283.518 113.998 283.347 113.912 283.191C113.825 283.035 113.708 282.898 113.568 282.788C113.428 282.678 113.267 282.598 113.095 282.552C112.923 282.506 112.743 282.495 112.567 282.52Z" fill="#080B09"/>
<path d="M100.499 278.595C100.499 278.595 97.2093 284.855 91.2412 286.711C85.2731 288.567 88.5345 297.987 88.5345 297.987C88.5345 297.987 84.4423 293.915 79.7384 296.207C75.0338 298.499 78.6046 307.492 85.1038 307.607L83.3359 317.726C83.3359 317.726 80.0445 313.628 76.5831 311.434C73.121 309.241 60.6857 300.727 66.1789 289.514C66.1789 289.514 61.8808 273.769 73.6687 265.606C85.4566 257.443 95.6594 260.524 95.6594 260.524C95.6594 260.524 98.4696 256.066 104.983 256.976C111.497 257.887 112.999 269.632 110.842 273.88C108.685 278.129 105.17 279.934 100.499 278.595Z" fill="#93523E"/>
<path d="M51.3878 341.352C59.6778 333.791 62.1256 338.431 64.5216 339.028C64.5216 339.028 72.508 341.868 70.7556 348.726C68.9034 355.983 49.0001 403.146 49.0001 403.146L24.3525 395.855L26.1663 390.623L30.8587 377.077L35.8707 362.591L36.3884 360.854L42.4753 341.717C42.4753 341.717 47.0687 345.407 51.3878 341.352Z" fill="#5661AE"/>
<path d="M67.8048 354.437C73.0271 348.337 72.3151 339.159 66.2153 333.937C60.1156 328.715 50.9373 329.427 45.7157 335.527C40.4935 341.626 41.2048 350.805 47.3052 356.027C53.4049 361.249 62.5826 360.537 67.8048 354.437Z" fill="#5661AE"/>
<path d="M46.5596 391.562L92.3191 436.402C92.5856 436.685 92.7377 437.056 92.7466 437.444C92.7556 437.832 92.6207 438.21 92.3676 438.504L84.4458 447.62C84.0617 448.052 83.5306 448.326 82.9554 448.388C82.3808 448.451 81.8031 448.298 81.3352 447.958L28.8184 409.825L46.5596 391.562Z" fill="#5661AE"/>
<path d="M36.6561 412.566C43.7714 412.566 49.5394 406.799 49.5394 399.683C49.5394 392.568 43.7714 386.801 36.6561 386.801C29.5415 386.801 23.7734 392.568 23.7734 399.683C23.7734 406.799 29.5415 412.566 36.6561 412.566Z" fill="#5661AE"/>
<path d="M111.104 382.924L86.2698 451.727H36.3369C36.3369 449.626 37.1716 447.611 38.6569 446.126C40.1428 444.64 42.1573 443.806 44.2581 443.806H80.3829L101.827 382.924H111.104Z" fill="white"/>
<path d="M111.103 382.924H178.097L152.188 451.727H86.2686L111.103 382.924Z" fill="url(#paint3_linear_721:2162)"/>
<path d="M204.65 158.544C204.65 158.544 215.813 156.193 219.354 161.622C222.895 167.05 226.435 177.249 234.461 175.926C242.486 174.604 248.623 147.931 256.648 148.168C264.674 148.403 261.133 165.87 269.867 166.106C278.6 166.342 276.476 156.429 283.557 156.429C290.638 156.429 288.278 177.672 297.483 177.908C306.689 178.145 305.745 150.528 319.671 151" stroke="white" stroke-width="5" stroke-miterlimit="10" stroke-linecap="round"/>
<path d="M172.065 154.875C177.75 140.911 172.277 125.486 159.84 120.423C147.403 115.36 132.713 122.576 127.028 136.54C121.343 150.504 126.817 165.928 139.253 170.991C151.69 176.054 166.381 168.839 172.065 154.875Z" stroke="#FF967C" stroke-width="16.5208" stroke-miterlimit="10" stroke-linecap="round"/>
<path d="M161.127 168.387C154.565 172.715 146.524 173.951 139.253 170.991C126.817 165.928 121.343 150.504 127.028 136.54C132.713 122.576 147.403 115.36 159.84 120.423" stroke="white" stroke-width="16.5208" stroke-miterlimit="10" stroke-linecap="round"/>
<path d="M213.041 118.805H262.161" stroke="white" stroke-width="10" stroke-miterlimit="10" stroke-linecap="round"/>
<path opacity="0.6" d="M210.713 132.354H230.697" stroke="white" stroke-width="10" stroke-miterlimit="10" stroke-linecap="round"/>
<path d="M584.92 455.571C584.779 455.586 584.715 455.665 584.792 455.728C584.728 455.806 584.728 455.806 584.747 455.948C584.447 456.922 584.236 457.921 584.114 458.932L596.232 468.672L597.574 467.164C597.574 467.164 593.1 461.631 591.426 460.022C590.704 459.313 590.058 458.666 589.413 458.02C588.85 457.436 588.345 456.774 587.859 456.254C587.182 455.324 585.22 455.681 585.201 455.539C585.124 455.477 584.92 455.571 584.92 455.571Z" fill="#233B62"/>
<path d="M493.29 370.944L504.992 382.284L570.418 445.467L571.614 446.556L572.131 447.359L572.208 447.422L581.475 461.464L582.511 463.07L582.856 463.606L589.125 473.172L583.961 475.741L582.466 476.477L580.357 477.495L577.027 479.219L576.969 479.297L573.435 481.115L573.263 480.847L565.21 465.455C563.65 462.482 561.458 459.884 558.793 457.841L487.646 403.378L474.124 393.025L493.29 370.944Z" fill="#FFCCB3"/>
<path d="M580.58 447.945C577.442 446.488 573.921 445.186 570.482 445.389C572.553 447.205 573.499 450.438 574.873 452.794C577.692 457.645 584.92 466.659 581.226 474.319C579.149 478.623 573.346 480.91 573.263 480.846C572.291 485.267 567.479 503.261 577.078 492.831C582.44 487.006 587.758 480.783 590.429 474.607C591.529 472.075 589.209 469.549 588.071 467.411C586.614 464.176 584.441 459.891 584.716 456.309L584.773 456.231C584.933 455.984 597.364 467.112 597.575 467.164C598.003 466.473 599 465.075 599 465.075C599 465.075 581.175 448.167 580.58 447.945Z" fill="#1C85E8"/>
<path d="M446.706 506.805C446.594 506.716 446.493 506.729 446.505 506.828C446.406 506.84 446.406 506.84 446.318 506.953C445.423 507.441 444.574 508.007 443.78 508.646L445.632 524.083L447.645 523.943C447.645 523.943 448.318 516.861 448.242 514.535C448.222 513.523 448.214 512.611 448.206 511.698C448.21 510.886 448.314 510.062 448.33 509.35C448.498 508.213 446.842 507.093 446.93 506.98C446.918 506.881 446.706 506.805 446.706 506.805Z" fill="#233B62"/>
<path d="M440.387 382.237L440.818 398.523L443.404 489.442L443.496 491.054L443.304 491.991L443.316 492.091L440.122 508.609L439.738 510.482L439.61 511.106L437.405 522.33L431.914 520.553L430.33 520.033L428.109 519.285L424.528 518.192L424.428 518.204L420.634 517.036L420.699 516.723L425.705 500.09C426.667 496.871 426.918 493.482 426.441 490.158L413.672 401.476L411.243 384.617L440.387 382.237Z" fill="#FFCCB3"/>
<path d="M448.934 498.317C447.711 495.083 446.105 491.691 443.504 489.43C443.716 492.179 442.131 495.151 441.463 497.793C440.087 503.233 438.951 514.732 430.954 517.624C426.461 519.25 420.71 516.823 420.698 516.723C416.913 519.204 400.887 528.698 415.043 527.956C422.949 527.541 431.103 526.812 437.333 524.267C439.887 523.224 439.996 519.797 440.678 517.473C441.9 514.142 443.339 509.557 446.04 507.189L446.14 507.177C446.427 507.11 447.53 523.758 447.644 523.943C448.433 523.747 450.121 523.443 450.121 523.443C450.121 523.443 449.205 498.894 448.934 498.317Z" fill="#1C85E8"/>
<path d="M422.76 260.042L399.631 357.712L399.589 364.646L418.396 480.297L448.341 477.055L439.654 366.602L463.479 308.973L458.662 261.712L422.76 260.042Z" fill="#1F2D49"/>
<path d="M419.522 381.435C430.691 381.435 439.746 372.381 439.746 361.211C439.746 350.042 430.691 340.987 419.522 340.987C408.352 340.987 399.298 350.042 399.298 361.211C399.298 372.381 408.352 381.435 419.522 381.435Z" fill="#1F2D49"/>
<path d="M447.245 348.241L441.541 299.985L439.654 366.603L447.245 348.241Z" fill="#0D1B33"/>
<path d="M485.193 259.737C485.193 259.737 495.975 277.854 496.115 293.025C496.332 315.795 488.12 356.624 488.12 356.624L559.822 429.098L542.752 454.693C542.752 454.693 481.569 403.927 455.681 379.814L449.883 368.074L441.541 299.984L454.291 259.737H485.193Z" fill="#1F2D49"/>
<path d="M422.759 260.042L485.563 260.688L491.666 273.318L421.698 264.525L422.759 260.042Z" fill="#0D1B33"/>
<path d="M469.926 385.683C481.096 385.683 490.152 376.629 490.152 365.459C490.152 354.29 481.096 345.235 469.926 345.235C458.757 345.235 449.702 354.29 449.702 365.459C449.702 376.629 458.757 385.683 469.926 385.683Z" fill="#1F2D49"/>
<path d="M415.428 125.828C415.428 125.828 416.271 135.216 413.794 144.24C411.317 153.265 392.561 172.374 409.194 187.946C425.827 203.517 446.175 161.758 446.175 161.758L439.805 142.471L417.777 119.553L415.428 125.828Z" fill="#1F2D49"/>
<path d="M466.174 128.02C466.174 128.02 471.166 134.361 482.54 139.544C493.699 144.631 505.714 152.992 503.241 171.217C500.761 189.442 467.771 175.287 458.079 164.847C448.387 154.407 449.72 135.768 449.72 135.768L466.174 128.02Z" fill="#1F2D49"/>
<path d="M440.66 162.169C440.66 162.169 427.999 167.179 426.066 168.725C424.134 170.272 422.298 182.892 419.012 188.884C415.726 194.876 410.919 205.936 417.94 216.096C424.961 226.254 424.215 234.321 424.215 234.321L422.721 259.805L483.23 260.921C483.767 260.938 484.298 260.841 484.79 260.638C485.282 260.434 485.723 260.128 486.093 259.74C486.458 259.353 486.733 258.891 486.912 258.388C487.084 257.884 487.148 257.349 487.103 256.818C486.432 249.388 483.358 238.954 483.115 227.122C482.789 211.088 482.546 157.512 482.546 157.512L456.184 156.685C450.874 157.6 440.66 162.169 440.66 162.169Z" fill="#FEBB94"/>
<path d="M472.17 179.413C472.17 179.413 463.351 187.454 462.832 193.419C462.314 199.385 461.114 216.018 449.781 217.677C435.89 219.71 432.254 221.69 438.693 223.247C445.132 224.803 459.748 222.282 459.748 228.953C459.748 233.701 465.426 237.252 468.279 234.659C471.132 232.065 493.859 192.641 472.17 179.413Z" fill="#FF967C"/>
<path d="M365.814 186.152L361.033 180.033C360.032 178.601 358.702 177.43 357.153 176.62C354.8 175.442 351.194 173.245 349.941 171.049C347.863 167.558 339.678 158.129 346.778 150.8C349.407 148.096 348.75 148.735 354.004 148.817C359.258 148.897 360.065 154.349 362.69 157.918C362.69 157.918 363.28 153.802 366.182 151.921C369.085 150.04 367.159 161.528 369.392 165.882C371.624 170.235 369.82 171.881 375.11 179.53L365.814 186.152Z" fill="#FFCCB3"/>
<path d="M353.204 149.445L357.474 159.132L353.204 149.445Z" fill="#E56441"/>
<path d="M353.204 149.445L357.474 159.132" stroke="#E56441" stroke-width="0.94666" stroke-linecap="round"/>
<path d="M347.636 151.167L353.552 161.482L347.636 151.167Z" fill="#E56441"/>
<path d="M347.636 151.167L353.552 161.482" stroke="#E56441" stroke-width="0.94666" stroke-linecap="round"/>
<path d="M344.143 157.949L348.806 164.107L344.143 157.949Z" fill="#E56441"/>
<path d="M344.143 157.949L348.806 164.107" stroke="#E56441" stroke-width="0.94666" stroke-linecap="round"/>
<path d="M361.592 160.114C361.592 160.114 359.785 165.289 360.098 169.367L361.592 160.114Z" fill="#E56441"/>
<path d="M361.592 160.114C361.592 160.114 359.785 165.289 360.098 169.367" stroke="#E56441" stroke-width="0.94666" stroke-linecap="round"/>
<path d="M429.143 167.058C424.235 168.759 417.393 172.21 415.541 176.06L399.181 213.328L371.936 171.93L361.619 182.797L387.063 235.422C391.713 246.995 403.523 251.343 412.079 238.871L425.748 217.401L429.143 167.058Z" fill="#FEBB94"/>
<path d="M422.165 199.14C422.165 199.14 420.69 196.595 420.69 209.877L412.078 238.87L425.747 217.4C436.713 202.657 428.05 198.72 422.165 199.14Z" fill="#FF967C"/>
<path d="M452.158 181.556L406.968 199.556C405.563 200.115 404.879 201.707 405.438 203.11L428.056 259.895C428.616 261.299 430.207 261.984 431.611 261.425L476.802 243.424C478.206 242.865 478.891 241.273 478.331 239.869L455.713 183.085C455.154 181.681 453.562 180.996 452.158 181.556Z" fill="#1C85E8"/>
<path d="M413.863 204.897L432.498 197.474" stroke="white" stroke-width="4" stroke-miterlimit="10" stroke-linecap="round"/>
<path d="M416.677 211.569L425.171 208.185" stroke="white" stroke-width="4" stroke-miterlimit="10" stroke-linecap="round"/>
<path d="M439.058 148.82L439.769 168.741C439.769 168.741 438.795 173.103 443.272 172.619C447.748 172.135 453.776 168.61 457.164 164.738C460.552 160.866 460.32 160.556 458.868 158.015C457.416 155.474 450.599 136.108 450.599 136.108L439.058 148.82Z" fill="#FFCCB3"/>
<path d="M439.16 150.491L447.415 145.234C447.415 145.234 443.757 161.287 439.77 168.741L439.16 150.491Z" fill="#FCBA9F"/>
<path d="M416.902 119.009C416.902 119.009 416.771 138.834 425.324 148.811C430.902 155.317 436.77 154.455 446.558 143.743C455.533 133.922 456.791 128.803 456.791 128.803L450.594 109.354C450.594 109.354 417.91 100.967 416.902 119.009Z" fill="#FFCCB3"/>
<path d="M425.413 114.41C425.413 114.41 428.996 123.11 435.65 125.542C442.303 127.973 444.044 132.494 444.044 132.494C444.044 132.494 445.32 125.055 450.55 125.326C455.779 125.596 454.716 134.828 451.471 137.893C451.471 137.893 455.375 145.135 458.686 150.491L473.185 136.1C473.185 136.1 465.715 127.464 464.072 120.515C462.43 113.566 457.113 94.9624 436.846 96.1946C413.051 97.6409 414.417 116.977 415.428 127.717C415.428 127.717 422.891 124.856 425.413 114.41Z" fill="#1F2D49"/>
<path d="M427.989 142.681L433.773 139.843C433.778 139.876 433.783 139.911 433.788 139.947C433.828 140.251 433.845 140.668 433.762 141.127C433.6 142.023 433.048 143.112 431.404 143.819C430.349 144.16 429.449 143.823 428.789 143.374C428.458 143.149 428.194 142.9 428.013 142.706C428.005 142.698 427.997 142.689 427.989 142.681Z" fill="#E56441" stroke="#E56441"/>
<path d="M421.689 134.63C422.42 134.449 422.797 133.43 422.531 132.352C422.265 131.275 421.457 130.547 420.725 130.728C419.994 130.909 419.617 131.929 419.883 133.006C420.15 134.083 420.957 134.81 421.689 134.63Z" fill="#080B09"/>
<path d="M432.527 132.117C433.259 131.937 433.636 130.917 433.369 129.84C433.103 128.763 432.295 128.035 431.564 128.216C430.833 128.397 430.456 129.416 430.722 130.493C430.988 131.571 431.796 132.298 432.527 132.117Z" fill="#080B09"/>
<path d="M417.482 128.82L422.998 127.554C423.09 127.525 423.168 127.463 423.219 127.38C423.269 127.297 423.286 127.199 423.27 127.104C423.208 126.943 423.115 126.794 422.995 126.669C422.875 126.544 422.73 126.445 422.571 126.377C422.411 126.309 422.24 126.275 422.066 126.275C421.892 126.275 421.721 126.311 421.562 126.379L417.237 128.212C416.876 128.301 417.032 128.931 417.482 128.82Z" fill="#080B09"/>
<path d="M436.005 123.883L428.821 126.134C428.773 125.91 428.772 125.678 428.819 125.454C428.867 125.229 428.96 125.017 429.094 124.83C429.228 124.644 429.4 124.488 429.598 124.373C429.796 124.257 430.016 124.184 430.244 124.159L435.984 123.41C436.164 123.366 436.275 123.816 436.005 123.883Z" fill="#080B09"/>
<path d="M425.556 131.027L424.777 136.844L426.832 137.836" fill="#E56441"/>
<path d="M425.556 131.027L424.777 136.844L426.832 137.836" stroke="#E56441" stroke-width="0.94666" stroke-linecap="round"/>
<path d="M431.026 233.014L413.208 238.126L411.03 249.106L415.084 261.257C415.084 261.257 417.934 259.34 417.34 254.867C416.745 250.394 431.802 250.522 434.561 244.899" fill="#FFCCB3"/>
<path d="M471.726 172.499C471.726 172.499 471.609 157.407 483.697 157.405C491.808 157.404 495.687 161.206 496.722 173.07C497.445 181.365 497.969 226.879 497.969 226.879C497.969 226.879 500.007 247.651 482.387 248.039L431.511 246.515L430.362 232.3L474.713 227.88L471.726 172.499Z" fill="#FEBB94"/>
<path d="M434.935 170.612C434.935 170.612 439.523 169.306 438.779 164.8C438.054 160.365 438.026 156.515 439.481 157.051C439.481 157.051 440.765 159.253 448.75 156.805C456.682 154.45 456.185 151.728 456.185 151.728C456.185 151.728 457.307 150.734 458.145 153.286C458.983 155.839 461.108 162.908 465.6 162.399L466.814 175.574L442.922 183.439C442.87 183.53 431.827 172.833 434.935 170.612Z" fill="#FEBB94"/>
<path d="M240.064 433.533H255.096" stroke="white" stroke-width="5" stroke-miterlimit="10" stroke-linecap="round"/>
<path opacity="0.5" d="M243.125 440.057H250.642" stroke="white" stroke-width="5" stroke-miterlimit="10" stroke-linecap="round"/>
<path d="M230.052 420.509L241.586 412.465L249.711 417.876L260.525 410.044" stroke="white" stroke-width="6.50414" stroke-linecap="round" stroke-linejoin="round"/>
<path d="M252.211 406.631H263.714V418.014" stroke="white" stroke-width="6.50414" stroke-linecap="round" stroke-linejoin="round"/>
<path d="M388.414 53.1987H343.832C343.287 53.2198 342.745 53.1131 342.248 52.8868C341.752 52.6612 341.315 52.3218 340.973 51.8975C340.631 51.4725 340.393 50.9739 340.278 50.4403C340.163 49.9073 340.174 49.3551 340.311 48.8265L347.163 13.5985C347.427 12.3947 348.082 11.3124 349.027 10.5213C349.972 9.73016 351.153 9.27485 352.384 9.22672H396.966C397.511 9.20569 398.053 9.31243 398.55 9.53836C399.046 9.76428 399.483 10.1031 399.825 10.5279C400.167 10.9527 400.405 11.4516 400.52 11.9847C400.635 12.5179 400.624 13.0705 400.487 13.5985L393.635 48.8265C393.371 50.0306 392.716 51.1126 391.771 51.9039C390.826 52.6951 389.645 53.1501 388.414 53.1987Z" fill="#1C85E8"/>
<path d="M357.833 18.7542L387.518 18.7599C387.731 18.7506 387.943 18.7908 388.138 18.8772C388.333 18.9637 388.505 19.094 388.641 19.2577C388.777 19.422 388.873 19.6156 388.922 19.8227C388.971 20.0304 388.971 20.2458 388.922 20.4535L388.516 22.6757C388.448 22.9985 388.306 23.3014 388.101 23.5602C387.897 23.8197 387.635 24.0281 387.336 24.1687L371.073 31.9959C370.822 32.1289 370.541 32.1979 370.257 32.196C369.972 32.1947 369.692 32.1225 369.442 31.9864L356.063 23.922C355.819 23.7692 355.629 23.5443 355.517 23.2784C355.407 23.0119 355.382 22.7185 355.446 22.4373L355.81 20.4471C355.909 19.9793 356.162 19.5581 356.529 19.2513C356.896 18.9442 357.355 18.7692 357.833 18.7542Z" fill="white"/>
<path d="M356.36 26.8462L369.159 34.8748C369.333 34.9726 369.529 35.0244 369.729 35.0244C369.928 35.0244 370.124 34.9726 370.298 34.8748L386.033 26.852C386.879 26.4206 387.731 26.9677 387.572 27.84L385.233 40.6294C385.055 41.4698 384.6 42.2266 383.941 42.7781C383.282 43.3297 382.457 43.6441 381.598 43.671L354.644 43.6659C354.261 43.6825 353.88 43.6103 353.53 43.455C353.18 43.2996 352.871 43.0657 352.627 42.7711C352.382 42.4758 352.209 42.1288 352.122 41.7562C352.034 41.3836 352.033 40.9956 352.121 40.623L354.46 27.8337C354.496 27.6304 354.579 27.438 354.702 27.2712C354.824 27.1044 354.984 26.9683 355.167 26.8731C355.351 26.7778 355.554 26.7254 355.761 26.721C355.968 26.7158 356.173 26.7587 356.36 26.8462Z" fill="white"/>
<path d="M398.506 18.4536C403.602 18.4536 407.733 14.3226 407.733 9.2268C407.733 4.13099 403.602 0 398.506 0C393.41 0 389.279 4.13099 389.279 9.2268C389.279 14.3226 393.41 18.4536 398.506 18.4536Z" fill="#FF967C"/>
<path d="M399.151 213.315L406.802 224.681L402.722 205.262L399.151 213.315Z" fill="#FF967C"/>
<defs>
<linearGradient id="paint0_linear_721:2162" x1="267.685" y1="110.52" x2="279.357" y2="308.675" gradientUnits="userSpaceOnUse">
<stop stop-color="white"/>
<stop offset="1" stop-color="#94B9FF"/>
</linearGradient>
<linearGradient id="paint1_linear_721:2162" x1="237.808" y1="169.046" x2="286.657" y2="511.456" gradientUnits="userSpaceOnUse">
<stop stop-color="white"/>
<stop offset="1" stop-color="#94B9FF"/>
</linearGradient>
<linearGradient id="paint2_linear_721:2162" x1="364.246" y1="169.046" x2="413.094" y2="511.456" gradientUnits="userSpaceOnUse">
<stop stop-color="white"/>
<stop offset="1" stop-color="#94B9FF"/>
</linearGradient>
<linearGradient id="paint3_linear_721:2162" x1="129.897" y1="382.76" x2="141.808" y2="529.385" gradientUnits="userSpaceOnUse">
<stop stop-color="white"/>
<stop offset="1" stop-color="#94B9FF"/>
</linearGradient>
</defs>
</svg>
