<svg width="694" height="507" viewBox="0 0 694 507" fill="none" xmlns="http://www.w3.org/2000/svg">
<path d="M558.789 56.7607H135.873C120.394 56.7607 107.844 69.31 107.844 84.7905V352.551C107.844 368.032 120.394 380.581 135.873 380.581H558.789C574.27 380.581 586.819 368.032 586.819 352.551V84.7905C586.819 69.31 574.27 56.7607 558.789 56.7607Z" fill="url(#paint0_linear_721:1921)"/>
<path d="M139.897 56.7607H555.447C563.858 56.7607 571.926 60.1019 577.87 66.0485C583.821 71.9952 587.162 80.0611 587.162 88.4709H108.187C108.187 80.0611 111.527 71.9952 117.474 66.0485C123.421 60.1019 131.486 56.7607 139.897 56.7607Z" fill="#5CA4E6"/>
<path d="M360.329 108.598H555.959C559.313 108.598 562.538 109.931 564.908 112.304C567.284 114.678 568.618 117.897 568.618 121.253V217.957C568.618 221.313 567.284 224.532 564.908 226.905C562.538 229.278 559.313 230.611 555.959 230.611H360.329C356.973 230.611 353.754 229.278 351.38 226.905C349.007 224.532 347.674 221.313 347.674 217.957V121.253C347.674 119.591 348.001 117.946 348.637 116.41C349.273 114.875 350.205 113.479 351.38 112.305C352.555 111.13 353.951 110.197 355.486 109.561C357.021 108.926 358.667 108.598 360.329 108.598Z" stroke="#5661AE" stroke-miterlimit="10" stroke-dasharray="11.93 11.93"/>
<path d="M503.448 248.498H307.817C300.828 248.498 295.162 254.164 295.162 261.153V357.857C295.162 364.846 300.828 370.511 307.817 370.511H503.448C510.437 370.511 516.104 364.846 516.104 357.857V261.153C516.104 254.164 510.437 248.498 503.448 248.498Z" fill="white"/>
<path d="M271.458 248.498H134.757C128.845 248.498 124.052 253.291 124.052 259.204V359.806C124.052 365.719 128.845 370.511 134.757 370.511H271.458C277.37 370.511 282.163 365.719 282.163 359.806V259.204C282.163 253.291 277.37 248.498 271.458 248.498Z" fill="white"/>
<path d="M313.166 337.229C313.166 337.229 327.829 335.685 336.644 342.285C348.469 351.136 357.991 357.968 370.561 336.214C384.332 312.38 386.496 304.056 396.542 303.957C409.437 303.832 414.47 338.201 438.246 340.63C462.021 343.059 478.187 339.172 478.187 339.172" stroke="#5661AE" stroke-width="10" stroke-miterlimit="10" stroke-linecap="round"/>
<path d="M313.166 268.635H347.331" stroke="#5661AE" stroke-width="16" stroke-miterlimit="10" stroke-linecap="round"/>
<path d="M313.166 284.579H383.771" stroke="#D4DCF4" stroke-width="16" stroke-miterlimit="10" stroke-linecap="round"/>
<path d="M137.163 79.7872C140.156 79.7872 142.582 77.361 142.582 74.3689C142.582 71.3762 140.156 68.95 137.163 68.95C134.171 68.95 131.745 71.3762 131.745 74.3689C131.745 77.361 134.171 79.7872 137.163 79.7872Z" fill="white"/>
<path d="M155.527 79.7872C158.519 79.7872 160.945 77.361 160.945 74.3689C160.945 71.3762 158.519 68.95 155.527 68.95C152.534 68.95 150.108 71.3762 150.108 74.3689C150.108 77.361 152.534 79.7872 155.527 79.7872Z" fill="white"/>
<path d="M173.366 79.7872C176.359 79.7872 178.785 77.361 178.785 74.3689C178.785 71.3762 176.359 68.95 173.366 68.95C170.373 68.95 167.947 71.3762 167.947 74.3689C167.947 77.361 170.373 79.7872 173.366 79.7872Z" fill="white"/>
<path d="M458.456 191.53C470.565 191.53 480.382 181.714 480.382 169.605C480.382 157.495 470.565 147.679 458.456 147.679C446.347 147.679 436.53 157.495 436.53 169.605C436.53 181.714 446.347 191.53 458.456 191.53Z" fill="#1C85E8"/>
<path d="M460.187 159.246C460.187 158.29 459.412 157.515 458.456 157.515C457.501 157.515 456.726 158.29 456.726 159.246V181.355C456.726 182.31 457.501 183.085 458.456 183.085C459.412 183.085 460.187 182.31 460.187 181.355V159.246Z" fill="white"/>
<path d="M469.512 172.03C470.467 172.03 471.242 171.255 471.242 170.3C471.242 169.344 470.467 168.569 469.512 168.569H447.403C446.446 168.569 445.672 169.344 445.672 170.3C445.672 171.255 446.446 172.03 447.403 172.03H469.512Z" fill="white"/>
<path d="M344.538 506.8C534.824 506.8 689.079 502.86 689.079 497.998C689.079 493.137 534.824 489.196 344.538 489.196C154.255 489.196 0 493.137 0 497.998C0 502.86 154.255 506.8 344.538 506.8Z" fill="#F5F8FF"/>
<path d="M646.707 325.126H405.633V495.428H646.707V325.126Z" fill="#5CA4E6"/>
<path d="M501.938 325.126H405.633V495.428H501.938V325.126Z" fill="url(#paint1_linear_721:1921)"/>
<path d="M59.0333 431.419L49.1402 494.951L45.3736 494.364C44.1026 494.166 42.9623 493.472 42.2035 492.433C41.4446 491.394 41.1292 490.097 41.3274 488.826L49.7281 434.878C49.9262 433.607 50.621 432.467 51.6596 431.708C52.6982 430.949 53.9958 430.634 55.2668 430.832L59.0333 431.419Z" fill="#5661AE"/>
<path d="M89.954 442.111L74.4852 437.483L69.5674 459.034L86.4912 464.348L89.954 442.111Z" fill="#BC775C"/>
<path d="M79.3092 462.093L76.4492 461.196L83.4753 440.173L86.0873 440.955L79.3092 462.093Z" fill="#93523E"/>
<path d="M76.4465 437.788C76.4465 437.788 70.3859 448.319 73.7257 460.34L52.9046 494.379C51.0948 495.701 48.3449 494.917 46.8168 494.104C46.4827 493.924 46.2127 493.644 46.045 493.303C45.8766 492.963 45.8183 492.579 45.8786 492.204L54.8594 434.534C55.0083 433.571 55.5296 432.705 56.3098 432.123C57.0907 431.541 58.0684 431.288 59.0339 431.419C62.8956 431.943 68.773 432.789 71.0846 433.383C74.6575 434.3 76.5417 435.599 76.4465 437.788Z" fill="#1C85E8"/>
<path d="M69.5733 467.57L66.5164 462.695C66.4044 462.516 66.251 462.368 66.0684 462.264C65.8864 462.159 65.6812 462.101 65.4714 462.094C65.2609 462.087 65.0524 462.132 64.864 462.225C64.6756 462.318 64.5124 462.456 64.3894 462.626C64.2392 462.835 64.155 463.084 64.1479 463.342C64.1414 463.6 64.2126 463.853 64.3518 464.07L68.1682 469.994L69.5733 467.57Z" fill="white"/>
<path d="M66.1084 472.792L63.0813 467.928C62.9693 467.75 62.8158 467.602 62.6339 467.498C62.4513 467.393 62.246 467.334 62.0362 467.328C61.8258 467.321 61.6173 467.366 61.4289 467.459C61.2404 467.551 61.0773 467.689 60.9549 467.86C60.804 468.069 60.7199 468.318 60.7134 468.576C60.7063 468.833 60.7775 469.087 60.9167 469.304L64.6528 475.172L66.1084 472.792Z" fill="white"/>
<path d="M62.5156 478.664L59.5442 473.835C59.4328 473.657 59.2787 473.509 59.0968 473.404C58.9142 473.299 58.7089 473.241 58.4991 473.235C58.2893 473.227 58.0808 473.273 57.8918 473.365C57.7033 473.458 57.5408 473.596 57.4178 473.766C57.2669 473.975 57.1827 474.225 57.1763 474.482C57.1691 474.74 57.2404 474.994 57.3802 475.21L61.0982 480.982L62.5156 478.664Z" fill="white"/>
<path d="M229.093 486.765H293.39V490.577C293.39 491.214 293.265 491.845 293.021 492.433C292.778 493.022 292.42 493.556 291.97 494.006C291.52 494.457 290.985 494.814 290.396 495.058C289.808 495.302 289.178 495.427 288.541 495.427H233.943C232.657 495.427 231.423 494.916 230.513 494.006C229.604 493.097 229.093 491.864 229.093 490.577V486.765Z" fill="#5661AE"/>
<path d="M234.9 454.568L232.707 470.564L254.759 472.108L257.405 454.568H234.9Z" fill="#BC775C"/>
<path d="M257.177 456.083L256.612 459.827L233.967 461.378L234.693 456.083H257.177Z" fill="#93523E"/>
<path d="M232.707 468.58C232.707 468.58 244.045 472.948 255.409 467.799L292.246 483.134C293.831 484.719 293.48 487.557 292.911 489.192C292.784 489.55 292.549 489.859 292.239 490.078C291.928 490.296 291.558 490.413 291.178 490.411H232.813C231.839 490.411 230.904 490.03 230.208 489.348C229.512 488.666 229.112 487.739 229.093 486.765C229.016 482.869 228.948 476.932 229.179 474.556C229.536 470.884 230.529 468.822 232.707 468.58Z" fill="#1C85E8"/>
<path d="M263.192 470.788L258.845 474.559C258.686 474.697 258.564 474.871 258.489 475.068C258.413 475.264 258.387 475.476 258.413 475.684C258.438 475.893 258.515 476.092 258.636 476.264C258.756 476.436 258.917 476.576 259.105 476.671C259.334 476.787 259.594 476.832 259.85 476.799C260.105 476.767 260.345 476.657 260.538 476.486L265.804 471.804L263.192 470.788Z" fill="white"/>
<path d="M268.885 473.409L264.545 477.149C264.386 477.286 264.263 477.461 264.188 477.657C264.112 477.853 264.086 478.065 264.112 478.273C264.138 478.482 264.215 478.681 264.335 478.853C264.455 479.025 264.617 479.165 264.804 479.26C265.034 479.377 265.293 479.421 265.549 479.388C265.804 479.355 266.044 479.247 266.237 479.075L271.461 474.481L268.885 473.409Z" fill="white"/>
<path d="M275.239 476.054L270.924 479.734C270.765 479.871 270.643 480.046 270.568 480.242C270.492 480.438 270.466 480.65 270.492 480.858C270.517 481.067 270.594 481.266 270.715 481.438C270.835 481.61 270.997 481.75 271.184 481.845C271.414 481.962 271.673 482.006 271.929 481.973C272.184 481.941 272.424 481.831 272.617 481.66L277.747 477.098L275.239 476.054Z" fill="white"/>
<path d="M197.028 244.922L210.354 218.686C210.354 218.686 202.241 219.746 200.828 214.711C199.414 209.675 239.167 205.17 239.167 205.17C239.167 205.17 235.986 216.301 231.216 217.626L218.097 256.053L197.028 244.922Z" fill="#BC775C"/>
<path d="M199.014 241.014L219.828 250.985L218.097 256.053L197.87 243.266L199.014 241.014Z" fill="#93523E"/>
<path d="M325.924 104.511L134.317 135.878C131.03 136.416 128.8 139.517 129.339 142.805L141.851 219.235C142.389 222.523 145.49 224.752 148.778 224.214L340.385 192.847C343.673 192.309 345.902 189.207 345.363 185.919L332.852 109.489C332.314 106.202 329.212 103.973 325.924 104.511Z" fill="#FEBB94"/>
<path d="M228.012 152.433L305.882 139.685" stroke="white" stroke-width="16.5208" stroke-miterlimit="10" stroke-linecap="round"/>
<path opacity="0.7" d="M233.544 176.077L284.341 167.761" stroke="white" stroke-width="16.5208" stroke-miterlimit="10" stroke-linecap="round"/>
<path d="M181.464 204.584C196.675 204.584 209.005 192.253 209.005 177.043C209.005 161.833 196.675 149.503 181.464 149.503C166.254 149.503 153.924 161.833 153.924 177.043C153.924 192.253 166.254 204.584 181.464 204.584Z" stroke="#EF6A77" stroke-width="16.5208" stroke-miterlimit="10"/>
<path d="M208.643 172.594C209.523 177.969 208.789 183.485 206.535 188.443C204.28 193.402 200.606 197.58 195.976 200.451C191.346 203.32 185.969 204.753 180.526 204.568C175.082 204.382 169.816 202.587 165.392 199.408C160.969 196.229 157.587 191.81 155.676 186.709C153.764 181.609 153.408 176.056 154.652 170.753C155.896 165.45 158.684 160.635 162.665 156.916C166.646 153.199 171.64 150.744 177.015 149.865" stroke="white" stroke-width="16.5208" stroke-miterlimit="10" stroke-linecap="round"/>
<path d="M190.439 383.274L198.387 473.234C198.387 492.518 178.711 494.712 172.412 492.439C163.528 489.233 77.4775 467.327 77.4775 467.327L86.597 439.396L152.641 448.576C152.641 448.576 150.835 429.834 133.125 372.604L190.439 383.274Z" fill="#5661AE"/>
<path d="M139.025 392.427L192.575 407.463L189.564 371.339L133.124 372.604L139.025 392.427Z" fill="#465393"/>
<path d="M189.661 186.177C189.661 186.177 200.265 198.215 203.418 203.088C206.571 207.96 206.684 217.517 200.092 219.953C193.5 222.389 188.108 222.799 178.483 221.001C170.994 219.603 161.286 207.244 164.152 200.938C167.018 194.633 180.346 183.168 189.661 186.177Z" fill="#BC775C"/>
<path d="M191.668 219.854L190.091 240.204L167.019 235.189L177.337 215.986L191.668 219.854Z" fill="#BC775C"/>
<path d="M191.668 221.972H185.395L190.761 231.554" fill="#93523E"/>
<path d="M164.439 233.899L167.88 230.565C168.327 230.132 168.875 229.819 169.475 229.654C170.075 229.489 170.706 229.478 171.311 229.621L190.178 234.089C190.632 234.197 191.051 234.421 191.393 234.738C191.735 235.056 191.989 235.457 192.13 235.901L193.494 240.204L164.439 233.899Z" fill="url(#paint2_linear_721:1921)"/>
<path d="M134.558 336.786L131.18 353.147C127.378 378.107 145.273 394.617 172.623 390.118C197.048 386.099 269.399 358.048 269.399 358.048L266.516 313.652L205.692 323.687C205.692 323.687 151.02 313.558 134.558 336.786Z" fill="#5661AE"/>
<path d="M271.047 352.477C281.914 352.477 290.723 343.667 290.723 332.801C290.723 321.934 281.914 313.125 271.047 313.125C260.18 313.125 251.371 321.934 251.371 332.801C251.371 343.667 260.18 352.477 271.047 352.477Z" fill="#5661AE"/>
<path d="M271.047 352.477C281.914 352.477 290.723 343.667 290.723 332.801C290.723 321.934 281.914 313.125 271.047 313.125C260.18 313.125 251.371 321.934 251.371 332.801C251.371 343.667 260.18 352.477 271.047 352.477Z" fill="#5661AE"/>
<path d="M178.711 493.475C189.578 493.475 198.386 484.666 198.386 473.799C198.386 462.932 189.578 454.123 178.711 454.123C167.844 454.123 159.035 462.932 159.035 473.799C159.035 484.666 167.844 493.475 178.711 493.475Z" fill="#5661AE"/>
<path d="M289.763 338.487L262.103 456.083H229.021L251.371 332.801L289.763 338.487Z" fill="#5661AE"/>
<path d="M205.692 323.687L132.84 346.36L134.558 336.786L205.692 323.687Z" fill="#465393"/>
<path d="M222.04 257.257L229.278 262.523L253.449 222.849C253.449 222.849 250.231 209.854 250.01 207.642L257.874 206.52C257.874 206.52 264.244 194.515 266.06 192.14C267.875 189.766 269.971 190.185 271.088 192.14C271.088 192.14 274.58 192.699 275.139 197.448C275.139 197.448 278.212 198.147 279.469 204.292C279.469 204.292 282.123 207.086 281.564 210.159C281.006 213.232 274.022 225.276 272.904 226.518C272.043 227.531 271.25 228.598 270.53 229.715L247.25 285.499C247.25 285.499 241.562 297.7 228.231 293.073L211.704 285.413C204.118 280.498 222.04 257.257 222.04 257.257Z" fill="#BC775C"/>
<path d="M234.223 294.515C241.907 294.515 248.136 288.286 248.136 280.602C248.136 272.917 241.907 266.688 234.223 266.688C226.538 266.688 220.309 272.917 220.309 280.602C220.309 288.286 226.538 294.515 234.223 294.515Z" fill="#BC775C"/>
<path d="M175.904 196.209C175.904 196.209 189.518 191.623 192.241 182.021C194.964 172.42 189.232 167.404 181.78 172.277C181.78 172.277 176.477 163.821 167.449 169.697C158.42 175.573 160.14 189.474 160.427 192.196C160.427 192.196 150.252 199.362 155.125 210.683C159.997 222.004 173.367 224.727 173.367 224.727C174.842 222.606 175.899 220.223 176.477 217.705C176.477 217.705 169.109 212.116 173.367 206.671C177.623 201.224 182.496 209.966 182.496 209.966C182.496 209.966 186.222 197.642 175.904 196.209Z" fill="#465393"/>
<path d="M164.439 233.899C164.439 233.899 154.987 238.598 152.847 243.659C150.868 248.335 137.107 309.756 132.893 334.481C132.792 335.068 132.838 335.67 133.024 336.235C133.211 336.8 133.534 337.31 133.964 337.721C134.394 338.132 134.918 338.432 135.491 338.592C136.064 338.753 136.667 338.771 137.248 338.644L205.691 323.687C205.691 323.687 202.344 287.715 203.517 277.158C204.69 266.602 193.493 240.204 193.493 240.204L164.439 233.899Z" fill="url(#paint3_linear_721:1921)"/>
<path d="M203.275 282.136L186.02 271.881L203.974 301.417L203.275 282.136Z" fill="#96BAFD"/>
<path d="M229.278 262.522L234.303 266.025L239.166 246.293L229.278 262.522Z" fill="#93523E"/>
<path d="M193.494 240.204C193.494 240.204 220.957 255.218 224.292 257.68C224.725 257.999 225.028 258.462 225.149 258.985C225.27 259.509 225.2 260.058 224.952 260.534L212.338 284.753C212.197 285.025 212.001 285.265 211.763 285.459C211.525 285.652 211.251 285.796 210.956 285.88C210.661 285.964 210.352 285.986 210.048 285.947C209.744 285.907 209.451 285.806 209.187 285.649L177.176 266.625C177.176 266.625 175.473 241.303 193.494 240.204Z" fill="url(#paint4_linear_721:1921)"/>
<path d="M189.99 204.235C190.648 203.744 190.574 202.531 189.824 201.527C189.073 200.522 187.932 200.106 187.274 200.598C186.615 201.089 186.691 202.302 187.44 203.306C188.19 204.31 189.332 204.727 189.99 204.235Z" fill="#080B09"/>
<path d="M199.015 197.406C199.673 196.915 199.598 195.702 198.848 194.698C198.098 193.693 196.956 193.277 196.298 193.768C195.64 194.26 195.715 195.473 196.465 196.477C197.215 197.481 198.356 197.898 199.015 197.406Z" fill="#080B09"/>
<path d="M195.361 199.277C195.361 199.277 195.205 202.247 197.025 201.465C198.737 200.659 200.201 201.214 199.128 203.469" stroke="#93523E" stroke-width="1.20877" stroke-linecap="round" stroke-linejoin="round"/>
<path d="M199.729 205.589C198.695 206.151 196.628 207.275 195.264 208.047C195.181 208.092 195.113 208.159 195.066 208.241C195.02 208.323 194.996 208.416 194.998 208.509C195 208.604 195.029 208.695 195.079 208.775C195.13 208.854 195.202 208.918 195.286 208.959C197.199 209.786 201.296 210.989 200.437 205.975C200.436 205.892 200.413 205.812 200.371 205.741C200.328 205.671 200.268 205.613 200.196 205.574C200.124 205.535 200.043 205.515 199.961 205.518C199.878 205.521 199.799 205.545 199.729 205.589Z" fill="white"/>
<path d="M182.228 201.266L182.42 201.423C182.679 201.675 183.028 201.815 183.39 201.811C183.752 201.807 184.099 201.66 184.353 201.403L188.607 196.855C188.822 196.643 188.949 196.359 188.964 196.058C188.979 195.756 188.881 195.46 188.688 195.229C188.576 195.081 188.435 194.959 188.273 194.87C188.111 194.78 187.931 194.727 187.747 194.713C187.563 194.698 187.378 194.723 187.204 194.785C187.029 194.848 186.87 194.946 186.737 195.074L182.292 199.465C182.167 199.578 182.066 199.714 181.994 199.867C181.923 200.019 181.884 200.184 181.878 200.352C181.871 200.52 181.9 200.688 181.96 200.845C182.02 201.002 182.111 201.145 182.228 201.266Z" fill="#080B09"/>
<path d="M197.689 188.362L191.838 190.557C191.666 190.624 191.51 190.727 191.381 190.859C191.251 190.991 191.151 191.149 191.087 191.322C191.023 191.496 190.996 191.681 191.009 191.865C191.022 192.05 191.074 192.229 191.161 192.393C191.291 192.664 191.518 192.878 191.798 192.991C192.077 193.103 192.39 193.107 192.672 193.001L198.584 191.045C198.924 190.923 199.203 190.67 199.358 190.343C199.513 190.016 199.533 189.64 199.412 189.299L199.35 189.059C199.289 188.902 199.197 188.759 199.08 188.639C198.963 188.519 198.822 188.423 198.668 188.358C198.512 188.293 198.346 188.259 198.178 188.26C198.01 188.261 197.843 188.296 197.689 188.362Z" fill="#080B09"/>
<path d="M646.707 88.4709L596.137 127.799H694L646.707 88.4709Z" fill="#FEBB94"/>
<path d="M486.593 290.447C486.593 290.447 468.048 274.259 452.971 288.016C437.893 301.772 375.6 396.239 375.6 396.239L394.441 409.268L465.103 329.802L477.403 349.6L486.593 290.447Z" fill="#FCBA9F"/>
<path fill-rule="evenodd" clip-rule="evenodd" d="M473.976 471.203C481.743 465.527 489.75 459.676 498.181 457.786C498.371 457.743 498.567 457.742 498.758 457.782C498.949 457.822 499.128 457.904 499.284 458.02C499.44 458.137 499.569 458.286 499.662 458.457C499.754 458.629 499.809 458.818 499.82 459.012L500.744 474.655C500.763 474.977 500.665 475.295 500.468 475.55C500.27 475.806 499.987 475.981 499.671 476.043L441.915 487.458C437.657 488.3 434.926 486.448 433.616 483.16C433.573 483.046 433.564 482.923 433.589 482.804C433.614 482.686 433.674 482.577 433.759 482.491C433.846 482.405 433.954 482.346 434.073 482.32C434.191 482.294 434.315 482.303 434.428 482.346C442.015 485.133 450.391 484.841 457.765 481.531C463.093 479.156 468.474 475.223 473.976 471.203Z" fill="#5661AE"/>
<path fill-rule="evenodd" clip-rule="evenodd" d="M491.7 419.955C491.7 419.955 492.793 444.643 493.37 447.155C493.766 448.528 494.263 449.869 494.856 451.169C495.846 453.528 496.949 456.158 497.05 458.069C489.033 460.204 481.396 465.784 473.976 471.205C468.475 475.225 463.094 479.156 457.766 481.531C450.748 484.68 442.808 485.105 435.495 482.72C434.49 478.452 437.405 473.728 444.759 471.6C457.94 467.785 465.143 465.367 469.738 454.343C473.004 446.509 467.534 419.235 467.534 419.235L491.7 419.955Z" fill="#FFCCB3"/>
<path fill-rule="evenodd" clip-rule="evenodd" d="M470.316 450.175C472.908 450.016 483.206 449.338 493.065 448.049C494.981 447.799 496.691 451.397 495.872 453.686C495.337 455.357 494.937 457.069 494.676 458.805C491.46 459.981 488.374 461.486 485.466 463.297C486.063 459.219 483.575 457.413 479.879 457.599C476.959 457.746 470.365 459.6 466.964 460.607C466.777 460.662 466.579 460.662 466.392 460.608C466.205 460.554 466.037 460.447 465.908 460.301C465.78 460.154 465.696 459.974 465.667 459.781C465.638 459.589 465.664 459.392 465.743 459.214L469.445 450.784C469.52 450.612 469.641 450.464 469.795 450.357C469.949 450.249 470.129 450.187 470.316 450.175Z" fill="white"/>
<path fill-rule="evenodd" clip-rule="evenodd" d="M443.045 484.175C449.755 484.701 453.813 482.956 453.813 482.956L451.113 469.297L440.615 471.88L443.045 484.175Z" fill="white"/>
<path fill-rule="evenodd" clip-rule="evenodd" d="M358.91 421.889C368.504 422.604 378.392 423.341 386.036 427.369C386.209 427.459 386.36 427.586 386.479 427.74C386.598 427.894 386.682 428.073 386.725 428.263C386.769 428.453 386.77 428.649 386.729 428.84C386.688 429.031 386.607 429.21 386.49 429.366L377.051 441.873C376.857 442.131 376.576 442.309 376.26 442.376C375.944 442.442 375.615 442.392 375.334 442.234L323.963 413.477C320.175 411.356 319.296 408.175 320.431 404.822C320.472 404.708 320.545 404.608 320.642 404.535C320.738 404.461 320.853 404.416 320.974 404.406C321.096 404.397 321.217 404.422 321.323 404.48C321.43 404.536 321.518 404.624 321.577 404.73C325.546 411.771 332.112 416.98 339.872 419.241C345.468 420.887 352.115 421.383 358.91 421.889Z" fill="#5661AE"/>
<path fill-rule="evenodd" clip-rule="evenodd" d="M405.633 394.366L389.268 416.156C388.68 417.458 388.188 418.802 387.797 420.176C387.021 422.615 386.155 425.331 384.993 426.851C377.505 423.279 368.072 422.575 358.909 421.891C352.115 421.384 345.469 420.888 339.873 419.241C332.488 417.088 326.169 412.263 322.147 405.706C324.15 401.806 329.433 400.099 336.411 403.247C348.918 408.89 355.97 411.719 366.616 406.306C368.332 405.296 369.87 404.01 371.167 402.501L387.702 378.149L405.633 394.366Z" fill="#FCBA9F"/>
<path fill-rule="evenodd" clip-rule="evenodd" d="M369.758 403.508C371.835 405.067 380.114 411.227 388.455 416.638C390.076 417.69 389.045 421.539 386.938 422.751C385.446 423.675 384.032 424.719 382.708 425.872C379.497 424.682 376.171 423.827 372.784 423.32C375.882 420.602 375.159 417.614 372.224 415.359C369.907 413.578 363.684 410.714 360.442 409.275C360.264 409.196 360.113 409.068 360.006 408.905C359.899 408.743 359.84 408.553 359.837 408.358C359.834 408.163 359.887 407.971 359.99 407.806C360.092 407.641 360.24 407.507 360.416 407.423L368.7 403.406C368.868 403.324 369.057 403.29 369.243 403.307C369.43 403.326 369.608 403.395 369.758 403.508Z" fill="white"/>
<path fill-rule="evenodd" clip-rule="evenodd" d="M326.951 411.709C331.719 416.46 335.939 417.763 335.939 417.763L342.741 405.613L333.073 400.773L326.951 411.709Z" fill="white"/>
<path d="M512.023 278.701L463.126 287.388L472.75 326.094H504.071C504.071 326.094 518.96 294.093 512.023 278.701Z" fill="#FFCCB3"/>
<path d="M469.393 325.715C480.26 325.715 489.069 316.907 489.069 306.04C489.069 295.173 480.26 286.364 469.393 286.364C458.526 286.364 449.717 295.173 449.717 306.04C449.717 316.907 458.526 325.715 469.393 325.715Z" fill="#FFCCB3"/>
<path d="M449.961 309.14L469.65 432.419L492.359 433.367L489.707 311.505L449.961 309.14Z" fill="#FFCCB3"/>
<path d="M480.805 282.092C480.805 282.092 488.34 284.413 491.451 296.704C494.562 308.994 491.167 326.094 491.167 326.094H496.013C496.013 326.094 513.291 305.804 500.579 279.945L480.805 282.092Z" fill="#FF967C"/>
<path d="M528.348 176.669L522.194 179.622C519.834 180.754 517.753 182.394 516.1 184.423C514.447 186.453 513.262 188.822 512.631 191.362L498.718 247.343L467.352 262.34L474.503 273.698L533.808 271.595L528.348 176.669Z" fill="#5661AE"/>
<path d="M519.485 196.821C519.485 196.821 508.685 211.994 513.911 226.445C519.137 240.897 517.004 243.576 515.697 256.379C514.39 269.182 518.658 266.205 518.658 266.205L533.808 259.059C533.808 259.059 540.127 198.498 519.485 196.821Z" fill="#465393"/>
<path d="M583.024 266.505C583.024 266.505 589.014 295.808 581.166 308.054C571.233 323.554 559.086 325.928 550.105 326.094H491.168C491.168 326.094 491.059 289.324 462.023 283.042C462.023 283.042 557.584 256.428 583.024 266.505Z" fill="#1F2D49"/>
<path d="M584.346 275.038L521.884 277.094L522.548 272.731L534.721 271.324H584.255L584.346 275.038Z" fill="#0D1B33"/>
<path d="M503.562 261.308C503.562 261.308 495.92 263.528 492.488 264.538C489.056 265.547 482.269 267.971 482.269 267.971L487.238 275.038L509.76 273.698L503.562 261.308Z" fill="#FFCCB3"/>
<path d="M540.587 171.443C540.587 171.443 527.763 176.518 525.804 178.085C523.846 179.652 521.987 192.437 518.657 198.508C515.328 204.579 510.458 215.784 517.571 226.076C524.685 236.369 523.929 244.542 523.929 244.542L522.415 270.36L581.755 272.165C582.292 272.182 582.83 272.085 583.329 271.878C583.827 271.672 584.28 271.363 584.649 270.97C585.019 270.577 585.303 270.109 585.478 269.599C585.653 269.089 585.718 268.547 585.672 268.009C584.993 260.481 583.847 249.235 583.601 237.248C583.27 221.004 583.024 166.724 583.024 166.724L556.315 165.886C550.94 166.814 540.587 171.443 540.587 171.443Z" fill="#5661AE"/>
<path d="M583.024 195.543C590.982 195.543 597.431 189.092 597.431 181.134C597.431 173.176 590.982 166.724 583.024 166.724C575.066 166.724 568.617 173.176 568.617 181.134C568.617 189.092 575.066 195.543 583.024 195.543Z" fill="#5661AE"/>
<path d="M584.967 262.055C584.967 262.055 583.737 266.56 570.56 271.825C570.56 271.825 539.668 271.153 524.32 271.476C508.972 271.799 525.965 267.75 534.533 263.479C543.1 259.207 583.996 247.343 583.996 247.343L584.967 262.055Z" fill="#465393"/>
<path d="M572.515 188.913C572.515 188.913 563.579 197.058 563.055 203.102C562.524 209.146 561.313 225.998 549.833 227.679C535.756 229.739 532.072 231.745 538.599 233.322C545.119 234.898 559.927 232.343 559.927 239.103C559.927 243.912 565.677 247.511 568.571 244.884C571.459 242.256 594.485 202.314 572.515 188.913Z" fill="#465393"/>
<path d="M597.276 183.242C596.065 189.024 584.54 249.941 584.54 249.941C584.54 249.941 583.025 259.054 574.121 261.308L512.023 277.094L501.097 260.704L557.416 241.443L568.618 181.134C568.618 181.134 598.895 175.528 597.276 183.242Z" fill="#5661AE"/>
<path d="M539.144 160.225L539.733 180.215C539.733 180.215 539.577 183.664 543.76 183.199C547.95 182.734 556.374 179.604 558.698 175.573C561.023 171.542 559.553 170.159 559.553 170.159L546.778 145.256L539.144 160.225Z" fill="#FFCCB3"/>
<path d="M539.144 162.548L544.375 156.345L539.59 175.427L539.144 162.548Z" fill="#FF967C"/>
<path d="M543.805 110.95C543.579 107.136 544.407 103.333 546.207 99.9615C549.186 94.582 555.363 87.1422 564.752 90.3474C574.134 93.5519 581.004 100.763 577.456 110.95C573.908 121.137 564.053 124.396 559.028 123.311C554.003 122.226 543.805 110.95 543.805 110.95Z" fill="#080B09"/>
<path d="M540.781 112.366C541.325 111.455 542.128 110.733 543.099 110.299C544.064 109.865 545.139 109.741 546.181 109.943C549.898 110.627 553.803 113.56 557.131 117.078C560.452 120.596 560.342 123.15 558.834 124.707C557.325 126.265 540.781 112.366 540.781 112.366Z" fill="#FEBB94"/>
<path d="M458.457 214.359L482.268 280.327H530.143C530.143 278.312 529.34 276.38 527.919 274.956C526.495 273.532 524.563 272.731 522.548 272.731H487.913L467.352 214.359H458.457Z" fill="white"/>
<path d="M458.456 214.359H394.223L419.064 280.327H482.268L458.456 214.359Z" fill="#D4DCF4"/>
<path d="M438.246 255.13C441.445 255.13 444.038 252.536 444.038 249.337C444.038 246.138 441.445 243.545 438.246 243.545C435.046 243.545 432.453 246.138 432.453 249.337C432.453 252.536 435.046 255.13 438.246 255.13Z" fill="white"/>
<path d="M513.143 135.644C513.143 135.644 515.124 154.778 524.433 163.49C530.506 169.171 536.074 167.716 544.375 156.345C551.983 145.919 552.65 140.849 552.65 140.849L544.608 122.75C544.608 122.75 512.197 118.138 513.143 135.644Z" fill="#FFCCB3"/>
<path d="M516.438 131.898C516.438 131.898 521.019 139.189 529.405 139.307C531.166 140.745 533.258 141.707 535.492 142.1C537.732 142.493 540.031 142.305 542.167 141.552C542.167 141.552 538.826 136.477 542.167 134.699C547.852 131.679 549.808 141.749 546.777 145.256C544.718 147.639 546.894 150.414 548.429 152.895C549.97 155.377 554.93 161.522 554.93 161.522C554.93 161.522 554.457 157.976 556.704 155.377C558.951 152.778 566.228 126.164 552.702 116.374C539.176 106.584 524.936 114.416 522.266 116.374C522.266 116.374 508.052 118.856 508.026 133.639C508.005 146.277 516.999 149.284 516.999 149.284L514.315 139.083C514.315 139.083 515.975 139.26 516.438 131.898Z" fill="#080B09"/>
<path d="M531.555 155.466C531.555 155.466 532.604 158.746 529.043 160.269C526.636 161.06 524.955 158.704 524.955 158.704L531.555 155.466Z" fill="#E56441"/>
<path d="M519.083 150.656C519.824 150.474 520.206 149.44 519.936 148.349C519.667 147.257 518.848 146.521 518.108 146.703C517.367 146.887 516.985 147.919 517.254 149.011C517.524 150.103 518.343 150.839 519.083 150.656Z" fill="#080B09"/>
<path d="M530.065 148.111C530.803 147.928 531.185 146.896 530.92 145.804C530.648 144.712 529.832 143.975 529.088 144.159C528.348 144.341 527.966 145.375 528.236 146.466C528.505 147.557 529.327 148.294 530.065 148.111Z" fill="#080B09"/>
<path d="M514.823 144.771L520.412 143.488C520.505 143.458 520.584 143.395 520.634 143.312C520.685 143.228 520.704 143.129 520.687 143.033C520.625 142.868 520.53 142.718 520.408 142.592C520.286 142.465 520.14 142.364 519.978 142.295C519.817 142.227 519.643 142.192 519.467 142.192C519.291 142.192 519.118 142.229 518.956 142.298L514.574 144.154C514.209 144.244 514.367 144.883 514.823 144.771Z" fill="#080B09"/>
<path d="M533.588 139.769L526.309 142.049C526.261 141.822 526.26 141.587 526.308 141.36C526.355 141.132 526.45 140.917 526.586 140.729C526.722 140.54 526.896 140.382 527.097 140.265C527.297 140.147 527.52 140.074 527.751 140.048L533.568 139.29C533.75 139.245 533.86 139.701 533.588 139.769Z" fill="#080B09"/>
<path d="M523.003 147.006L522.214 152.899L524.295 153.904" stroke="#E56441" stroke-width="0.94666" stroke-linecap="round"/>
<path d="M646.706 88.4709V0" stroke="#5661AE" stroke-miterlimit="10"/>
<defs>
<linearGradient id="paint0_linear_721:1921" x1="335.407" y1="55.9915" x2="386.05" y2="746.914" gradientUnits="userSpaceOnUse">
<stop stop-color="white"/>
<stop offset="1" stop-color="#94B9FF"/>
</linearGradient>
<linearGradient id="paint1_linear_721:1921" x1="451.388" y1="324.721" x2="518.944" y2="677.087" gradientUnits="userSpaceOnUse">
<stop stop-color="white"/>
<stop offset="1" stop-color="#94B9FF"/>
</linearGradient>
<linearGradient id="paint2_linear_721:1921" x1="178.243" y1="229.496" x2="179.155" y2="252.376" gradientUnits="userSpaceOnUse">
<stop stop-color="white"/>
<stop offset="1" stop-color="#94B9FF"/>
</linearGradient>
<linearGradient id="paint3_linear_721:1921" x1="167.453" y1="233.649" x2="201.701" y2="453.179" gradientUnits="userSpaceOnUse">
<stop stop-color="white"/>
<stop offset="1" stop-color="#94B9FF"/>
</linearGradient>
<linearGradient id="paint4_linear_721:1921" x1="199.973" y1="240.095" x2="209.998" y2="337.225" gradientUnits="userSpaceOnUse">
<stop stop-color="white"/>
<stop offset="1" stop-color="#94B9FF"/>
</linearGradient>
</defs>
</svg>
