<svg width="443" height="788" viewBox="0 0 443 788" fill="none" xmlns="http://www.w3.org/2000/svg">
<ellipse cx="389.908" cy="393.694" rx="349.908" ry="353.694" fill="white"/>
<path d="M389.908 767.388C594.405 767.388 759.816 599.876 759.816 393.694C759.816 187.512 594.405 20 389.908 20C185.411 20 20 187.512 20 393.694C20 599.876 185.411 767.388 389.908 767.388Z" stroke="#0062FF" stroke-opacity="0.05" stroke-width="40"/>
<ellipse cx="389.908" cy="393.694" rx="249.316" ry="252.02" fill="white"/>
<path d="M389.908 660.714C536.038 660.714 654.224 541.012 654.224 393.694C654.224 246.376 536.038 126.673 389.908 126.673C243.778 126.673 125.592 246.376 125.592 393.694C125.592 541.012 243.778 660.714 389.908 660.714Z" stroke="#0062FF" stroke-opacity="0.05" stroke-width="30"/>
<ellipse cx="389.367" cy="393.694" rx="159" ry="160.082" fill="white"/>
<path d="M389.367 563.776C482.767 563.776 558.367 487.563 558.367 393.694C558.367 299.824 482.767 223.612 389.367 223.612C295.967 223.612 220.367 299.824 220.367 393.694C220.367 487.563 295.967 563.776 389.367 563.776Z" stroke="#0062FF" stroke-opacity="0.05" stroke-width="20"/>
</svg>
